<ttFont>
          <CharString index="0">
            rmoveto
            -77 hlineto
            -108 -467 rlineto
            -7 -27 -4 -37 -27 vvcurveto
            -99 78 -45 120 152 73 73 148 34 vhcurveto
            111 481 -33 callgsubr
            -111 -481 rlineto
            -101 -23 -44 -52 -109 hhcurveto
            -79 -49 23 63 22 4 27 6 24 hvcurveto
            return
          </CharString>
          <CharString index="1">
            rmoveto
            -74 callsubr
            hvcurveto
            51 hlineto
            -59 callsubr
            -20 callgsubr
            -187 -82 -196 -172 -102 55 -50 96 90 89 29 0 hvcurveto
            6 59 rlineto
            0 -91 -22 -74 vhcurveto
            -75 231 rmoveto
            96 28 51 64 91 hhcurveto
            49 28 -16 -44 -78 -61 -22 -131 hvcurveto
            return
          </CharString>
          <CharString index="2">
            197 -235 rmoveto
            156 94 86 99 77 -50 29 -101 13 hvcurveto
            -69 9 -24 6 23 vvcurveto
            26 31 40 0 vhcurveto
            0 19 -3 14 140 71 108 89 32 -8 22 -9 15 vhcurveto
            89 hlineto
            15 64 -148 -6 rlineto
            0 -44 16 -52 -129 -72 -105 -96 -61 24 -38 45 -21 vhcurveto
            0 -55 -53 -44 vvcurveto
            -20 6 -13 10 -10 vhcurveto
            -58 -30 -74 -47 -76 vvcurveto
            -84 69 -47 110 vhcurveto
            79 242 rmoveto
            69 -9 29 -12 -42 vvcurveto
            -74 -84 -41 -90 -76 -35 36 47 45 55 43 45 23 vhcurveto
            14 -5 28 -6 45 -5 rrcurveto
            -2 225 rmoveto
            -61 -22 33 47 59 44 76 82 65 25 -29 -55 -51 -41 -80 -92 hvcurveto
            return
          </CharString>
          <CharString index="3">
            -26 -32 -39 -14 -45 hhcurveto
            -9 -68 rmoveto
            -5 callsubr
            144 -76 63 -139 -72 -62 -26 -46 -50 vhcurveto
            -105 -95 -54 -174 -164 vvcurveto
            -149 67 -58 145 vhcurveto
            return
          </CharString>
          <CharString index="4">
            15 68 rlineto
            -309 hlineto
            58 250 rlineto
            253 hlineto
            16 68 rlineto
            -254 hlineto
            -15 callgsubr
            309 hlineto
            16 68 rlineto
            -386 hlineto
            endchar
          </CharString>
          <CharString index="5">
            rmoveto
            0 -50 10 -37 -87 -51 -50 -120 -30 vhcurveto
            -109 -27 27 -53 77 hhcurveto
            74 46 38 74 19 hvcurveto
            64 16 -23 39 -70 hhcurveto
            -20 -26 -8 -6 -17 hvcurveto
            52 14 24 21 41 hhcurveto
            34 49 -6 0 hvcurveto
            -121 -108 rmoveto
            34 8 -13 -36 -9 hvcurveto
            -30 -8 -18 -24 -34 hhcurveto
            -36 -5 33 54 12 hvcurveto
            0 29 16 27 vhcurveto
            endchar
          </CharString>
          <CharString index="6">
            rmoveto
            -32 -29 -6 -18 -24 hvcurveto
            -32 -25 -25 -45 -18 -72 rrcurveto
            -125 -31 34 -41 74 hhcurveto
            33 29 5 19 24 hvcurveto
            33 25 24 45 18 72 rrcurveto
            125 31 -36 41 -73 hhcurveto
            -15 -59 rmoveto
            38 9 -27 -80 -20 hvcurveto
            -86 -22 -23 -21 -35 hhcurveto
            -34 -14 21 86 22 hvcurveto
            81 20 23 26 36 hhcurveto
            endchar
          </CharString>
          <CharString index="7">
            rmoveto
            -7 -500 rlineto
            130 hlineto
            187 393 3 -393 rlineto
            133 hlineto
            227 500 -4 callgsubr
            -196 -435 20 callgsubr
            -4 425 rlineto
            -88 hlineto
            -205 -425 20 callgsubr
            9 435 rlineto
            return
          </CharString>
          <CharString index="8">
            -179 -84 -176 -192 -97 53 -55 102 63 69 21 0 hvcurveto
            5 59 rlineto
            0 -73 -15 -39 -75 -28 36 65 140 57 149 127 43 65 -12 0 vhcurveto
            19 58 rlineto
            0 -68 19 -57 vhcurveto
            return
          </CharString>
          <CharString index="9">
            -75 callsubr
            -42 callgsubr
            vhcurveto
            58 249 -48 callgsubr
            -20 callsubr
            -9 -36 -11 -53 -41 vvcurveto
            return
          </CharString>
          <CharString index="10">
            -26 -10 68 577 67 hstem
            162 78 186 79 vstem
            590 674 rmoveto
            0 -94 28 -92 -64 callsubr
            vhcurveto
            89 -31 24 -16 -57 vvcurveto
            -105 -61 -59 -105 -75 -116 18 0 vhcurveto
            -13 -60 rlineto
            0 106 -26 95 150 98 89 150 90 -40 31 -101 36 vhcurveto
            -92 33 -32 14 56 vvcurveto
            96 62 50 99 70 106 -18 0 vhcurveto
            return
          </CharString>
          <CharString index="11">
            rmoveto
            14 58 rlineto
            -127 hlineto
            76 60 49 36 29 31 12 46 rlinecurve
            62 16 -24 29 -69 hhcurveto
            -43 -63 -12 0 hvcurveto
            -12 -59 rlineto
            0 58 10 29 29 18 -10 -26 -7 vhcurveto
            -8 -30 -25 -23 -38 -30 -110 -86 rcurveline
            -14 -56 rlineto
            endchar
          </CharString>
          <CharString index="12">
            rmoveto
            13 -500 rlineto
            68 hlineto
            -115 -221 -41 callgsubr
            365 721 -33 callgsubr
            -218 -436 rlineto
            -30 hlineto
            -8 436 rlineto
            return
          </CharString>
          <CharString index="13">
            vstem
            9 callgsubr
            -44 callgsubr
            195 91 247 174 76 77 -15 0 vhcurveto
            17 60 rlineto
            0 -87 23 -79 -246 -103 -302 -212 -129 63 -69 130 79 89 22 0 vhcurveto
            return
          </CharString>
          <CharString index="14">
            rmoveto
            82 hlineto
            96 81 54 -81 -5 callgsubr
            -96 138 rlineto
            return
          </CharString>
          <CharString index="15">
            rmoveto
            0 -62 -46 -20 vhcurveto
            -29 -62 55 -49 hhcurveto
            -38 -67 -60 0 hvcurveto
            2 -54 rlineto
            0 65 49 22 vhcurveto
            32 65 -56 44 hhcurveto
            37 63 59 0 hvcurveto
            return
          </CharString>
          <CharString index="16">
            rmoveto
            16 65 rlineto
            -140 hlineto
            36 148 -40 callsubr
            -35 -148 rlineto
            -65 hlineto
            -17 -65 rlineto
            66 hlineto
            -58 -247 rlineto
            -8 -32 -8 -39 -32 vvcurveto
            -59 37 -36 66 45 52 14 0 vhcurveto
            5 57 rlineto
            0 -51 -6 -26 -36 -14 18 28 22 5 33 7 28 vhcurveto
            58 251 rlineto
            return
          </CharString>
          <CharString index="17">
            73 hlineto
            143 617 rlineto
            20 hlineto
            108 -617 rlineto
            131 hlineto
            -69 callgsubr
            -75 hlineto
            -141 -613 20 callgsubr
            -104 613 rlineto
            -136 hlineto
            endchar
          </CharString>
          <CharString index="18">
            rmoveto
            228 86 -9 65 -76 callsubr
            return
          </CharString>
          <CharString index="19">
            rmoveto
            -77 hlineto
            -93 -82 -58 82 -48 callgsubr
            98 -137 rlineto
            47 hlineto
            return
          </CharString>
          <CharString index="20">
            45 -68 rmoveto
            30 hlineto
            7 -380 rlineto
            -228 hlineto
            return
          </CharString>
          <CharString index="21">
            rmoveto
            -50 26 -23 37 -17 vhcurveto
            -71 -23 -31 -31 -19 -84 -4 -19 -14 -80 -4 -21 rrcurveto
            hintmask 11100000
            -16 -70 -33 -40 -89 -5 -12 -68 rcurveline
            121 5 59 43 33 106 8 22 13 82 8 36 13 62 17 29 91 24 14 59 rcurveline
            -50 18 -22 22 41 39 47 120 57 vvcurveto
            74 -50 39 -94 2 vhcurveto
            -19 -68 rlineto
            60 29 -23 -46 hvcurveto
            -52 -48 -120 -40 vvcurveto
            endchar
          </CharString>
          <CharString index="22">
            rmoveto
            -95 69 -36 96 66 88 25 0 vhcurveto
            6 61 rlineto
            0 -84 -18 -60 -62 -39 16 52 68 34 32 99 78 vhcurveto
            hintmask 1011110001100000
            60 46 33 40 8 44 rrcurveto
            hintmask 1011101001100000
            6 29 1 33 0 vvcurveto
            -71 hlineto
            hintmask 1011110001100000
            -8 -39 -6 -31 -24 -33 -48 -37 rlinecurve
            -125 -97 -39 -39 -99 vvcurveto
            363 570 rmoveto
            -76 hlineto
            hintmask 1011100101100000
            -26 -116 rlineto
            77 hlineto
            endchar
          </CharString>
          <CharString index="23">
            29 59 -48 40 hhcurveto
            37 57 51 0 hvcurveto
            return
          </CharString>
          <CharString index="24">
            128 50 186 99 81 vhcurveto
            -79 callsubr
          </CharString>
          <CharString index="25">
            rmoveto
            18 -47 80 47 -60 -242 rlineto
            64 hlineto
            77 312 rlineto
            -60 hlineto
            return
          </CharString>
          <CharString index="26">
            -47 callgsubr
            -14 692 rlineto
            -149 hlineto
            return
          </CharString>
          <CharString index="27">
            rmoveto
            -83 hlineto
            -229 -323 -81 323 rlineto
            -78 hlineto
            106 -390 return
          </CharString>
          <CharString index="28">
            25 31 37 12 41 hhcurveto
            -105 callgsubr
            endchar
          </CharString>
          <CharString index="29">
            rmoveto
            330 hlineto
            -6 -27 -448 -498 -22 -99 rlineto
            416 hlineto
            16 68 rlineto
            -332 hlineto
            6 24 448 498 24 102 rlineto
            -416 hlineto
            endchar
          </CharString>
          <CharString index="30">
            rmoveto
            132 hlineto
            -5 -21 -161 -223 72 -15 166 244 19 77 rlineto
            -208 hlineto
            endchar
          </CharString>
          <CharString index="31">
            -228 -94 rlineto
            return
          </CharString>
          <CharString index="32">
            0 -87 -112 -67 -46 -22 28 47 return
          </CharString>
          <CharString index="33">
            -57 -39 31 60 23 4 33 7 25 return
          </CharString>
          <CharString index="34">
            rmoveto
            -35 callsubr
            0 -87 -112 -67 vhcurveto
            hintmask 10011000
            -46 -22 28 47 -42 callgsubr
            hvcurveto
            -50 callgsubr
          </CharString>
          <CharString index="35">
            -11 callgsubr
            670 20 17 13 24 8 29 rlinecurve
            70 17 -38 30 -59 hhcurveto
            -62 -49 -32 -68 -18 hvcurveto
            -8 -30 3 -24 13 -17 rrcurveto
            56 -45 rmoveto
            30 hlineto
            7 -380 rlineto
            -228 hlineto
            return
          </CharString>
          <CharString index="36">
            89 177 rlineto
            259 hlineto
            return
          </CharString>
          <CharString index="37">
            930 rmoveto
            -37 -64 188 -86 34 56 rlineto
            return
          </CharString>
          <CharString index="38">
            rmoveto
            -27 -692 rlineto
            137 hlineto
            248 570 -19 -570 rlineto
            133 hlineto
            return
          </CharString>
          <CharString index="39">
            0 -75 18 -58 -160 -90 -205 -169 -97 43 -49 83 89 76 99 0 vhcurveto
            -19 -89 rlineto
            72 hlineto
            -34 173 rmoveto
            0 -94 -118 -67 -50 -22 30 52 124 60 184 113 54 66 -15 3 callsubr
          </CharString>
          <CharString index="40">
            785 -89 callsubr
            return
          </CharString>
          <CharString index="41">
            rmoveto
            -36 -59 188 -86 33 52 rlineto
            return
          </CharString>
          <CharString index="42">
            -70 -302 -18 callsubr
            69 296 rlineto
            endchar
          </CharString>
          <CharString index="43">
            -146 -96 -81 -138 -92 53 -31 98 -34 return
          </CharString>
          <CharString index="44">
            25 31 37 12 41 hhcurveto
            return
          </CharString>
          <CharString index="45">
            hlineto
            -160 -692 rlineto
            return
          </CharString>
          <CharString index="46">
            -260 -70 68 694 -20 hstem
            142 76 56 76 vstem
            350 692 rmoveto
            -76 hlineto
            -132 -568 rlineto
            -110 -25 -15 -16 -83 hhcurveto
            -12 -68 rlineto
            152 22 28 160 37 hvcurveto
            return
          </CharString>
          <CharString index="47">
            -144 -624 -41 callgsubr
            144 624 rlineto
            186 hlineto
            16 68 rlineto
            -447 hlineto
            endchar
          </CharString>
          <CharString index="48">
            187 93 37 123 return
          </CharString>
          <CharString index="49">
            -82 callgsubr
            hintmask 10110000
            -12 callsubr
            hintmask 01110000
            -26 -32 -39 -14 -45 hhcurveto
            return
          </CharString>
          <CharString index="50">
            78 hlineto
            -47 callgsubr
            return
          </CharString>
          <CharString index="51">
            -34 -296 rmoveto
            -40 -31 6 13 -22 hvcurveto
            173 252 163 241 rlineto
            10 -21 4 -27 -32 vvcurveto
            -137 -45 -176 -96 -79 vhcurveto
            -26 -32 -39 -14 -45 hhcurveto
            return
          </CharString>
          <CharString index="52">
            rmoveto
            105 hlineto
            -52 -220 rlineto
            0 -65 -15 -56 return
          </CharString>
          <CharString index="53">
            61 14 -41 18 -55 hhcurveto
            -5 hlineto
            return
          </CharString>
          <CharString index="54">
            rmoveto
            hintmask 01100000
            0 -226 -310 -325 vvcurveto
            -150 21 -87 0 vhcurveto
            hintmask 10100000
            71 hlineto
            0 -15 96 141 vvcurveto
            302 220 333 3 callsubr
          </CharString>
          <CharString index="55">
            -114 rmoveto
            88 128 rlineto
            -16 32 42 -8 53 hhcurveto
            -5 callsubr
            65 -16 48 -29 34 vhcurveto
            91 134 return
          </CharString>
          <CharString index="56">
            vstem
            139 500 -95 callsubr
            return
          </CharString>
          <CharString index="57">
            0 callgsubr
            144 624 rlineto
            -76 -62 callsubr
            endchar
          </CharString>
          <CharString index="58">
            75 -38 51 -80 -85 -76 -97 0 vhcurveto
            18 87 rlineto
            -73 hlineto
            -115 -500 rlineto
            return
          </CharString>
          <CharString index="59">
            hstem
            154 500 rmoveto
            341 hlineto
            -14 -64 -341 -371 rlineto
            255 hlineto
            -15 -65 rlineto
            -342 hlineto
            12 64 340 371 rlineto
            -252 hlineto
            return
          </CharString>
          <CharString index="60">
            -10 65 166 64 146 58 -44 65 return
          </CharString>
          <CharString index="61">
            93 rlineto
            -62 hlineto
            return
          </CharString>
          <CharString index="62">
            31 8 24 17 34 hhcurveto
            30 19 -16 -32 -7 hvcurveto
            return
          </CharString>
          <CharString index="63">
            -27 0 56 -45 -21 510 -20 return
          </CharString>
          <CharString index="64">
            rmoveto
            -83 -16 36 -55 88 hhcurveto
            return
          </CharString>
          <CharString index="65">
            -21 151 -20 return
          </CharString>
          <CharString index="66">
            rmoveto
            -164 hlineto
            -61 -259 -4 callgsubr
            -69 callgsubr
            211 hlineto
            118 62 -45 -122 -158 -98 -76 -80 -22 hvcurveto
            return
          </CharString>
          <CharString index="67">
            rlineto
            -75 hlineto
            return
          </CharString>
          <CharString index="68">
            rmoveto
            173 137 -43 43 -169 -139 rlineto
            -143 -41 rmoveto
            172 137 -43 42 -168 -138 rlineto
            endchar
          </CharString>
          <CharString index="69">
            -283 rmoveto
            61 hlineto
            96 210 rlineto
            -70 hlineto
            return
          </CharString>
          <CharString index="70">
            hlineto
            -87 -7 callgsubr
            return
          </CharString>
          <CharString index="71">
            rmoveto
            203 869 rlineto
            -193 hlineto
            -17 -65 rlineto
            119 hlineto
            -173 -739 rlineto
            -119 hlineto
            -15 -65 rlineto
            endchar
          </CharString>
          <CharString index="72">
            -77 -332 rlineto
            return
          </CharString>
          <CharString index="73">
            6 -177 -41 callgsubr
            -14 692 rlineto
            -149 hlineto
            -87 callsubr
            endchar
          </CharString>
          <CharString index="74">
            -213 -142 -14 -38 142 -149 20 69 -88 96 return
          </CharString>
          <CharString index="75">
            rmoveto
            293 hlineto
            14 60 rlineto
            -294 hlineto
            return
          </CharString>
          <CharString index="76">
            76 hlineto
            26 -16 callgsubr
            return
          </CharString>
          <CharString index="77">
            rmoveto
            63 hlineto
            21 90 rlineto
            -64 hlineto
            return
          </CharString>
          <CharString index="78">
            hlineto
            -53 callgsubr
            return
          </CharString>
          <CharString index="79">
            rmoveto
            213 142 14 38 rlineto
            hintmask 01101100
            -142 149 -20 -69 88 -96 rlineto
            hintmask 10011100
            -131 -87 rlineto
            return
          </CharString>
          <CharString index="80">
            99 523 rmoveto
            75 -32 27 -76 vhcurveto
            -142 hlineto
            -69 -299 rlineto
            147 hlineto
            105 67 83 114 hvcurveto
            return
          </CharString>
          <CharString index="81">
            47 -10 68 -47 -21 68 -20 255 66 275 68 return
          </CharString>
          <CharString index="82">
            692 rmoveto
            -68 hlineto
            -55 -232 rlineto
            return
          </CharString>
          <CharString index="83">
            39 21 -21 259 67 299 67 return
          </CharString>
          <CharString index="84">
            -310 21 -21 718 -20 hstem
            70 75 vstem
            70 hmoveto
            -24 callgsubr
            return
          </CharString>
          <CharString index="85">
            -21 48 59 205 -20 return
          </CharString>
          <CharString index="86">
            66 -18 66 hstemhm
            return
          </CharString>
          <CharString index="87">
            -59 -254 rlineto
            return
          </CharString>
          <CharString index="88">
            -78 callgsubr
            endchar
          </CharString>
          <CharString index="89">
            rlineto
            73 hlineto
            return
          </CharString>
          <CharString index="90">
            -40 callsubr
            -166 -718 rlineto
            return
          </CharString>
          <CharString index="91">
            -156 -20 89 42 return
          </CharString>
          <CharString index="92">
            80 162 72 -64 71 -60 77 -74 123 55 40 167 32 hintmask 0111100011100000
            return
          </CharString>
          <CharString index="93">
            720 -82 callsubr
            return
          </CharString>
          <CharString index="94">
            rlineto
            147 hlineto
            89 38 -40 -98 hvcurveto
            endchar
          </CharString>
          <CharString index="95">
            -63 callsubr
            99 42 -44 -100 -137 -45 -176 -96 -79 hvcurveto
            return
          </CharString>
          <CharString index="96">
            rlineto
            494 486 rmoveto
            -162 -79 -256 -165 vhcurveto
            -157 hlineto
            return
          </CharString>
          <CharString index="97">
            231 104 275 211 148 -70 58 -122 hvcurveto
            -222 hlineto
            return
          </CharString>
          <CharString index="98">
            -209 21 -21 434 77 return
          </CharString>
          <CharString index="99">
            64 95 -14 0 hvcurveto
            return
          </CharString>
          <CharString index="100">
            rmoveto
            -57 callsubr
            return
          </CharString>
          <CharString index="101">
            -20 hstem
            232 75 132 77 vstem
            return
          </CharString>
          <CharString index="102">
            69 63 22 39 48 hvcurveto
            113 93 53 181 170 vvcurveto
            return
          </CharString>
          <CharString index="103">
            48 -86 rlineto
            return
          </CharString>
          <CharString index="104">
            -62 callsubr
            76 hlineto
            return
          </CharString>
          <CharString index="105">
            -107 0 65 370 65 return
          </CharString>
          <CharString index="106">
            57 94 56 56 57 hstem
            return
          </CharString>
          <CharString index="107">
            hlineto
            22 -46 callsubr
            return
          </CharString>
          <CharString index="108">
            59 83 54 77 59 hstem
            return
          </CharString>
          <CharString index="109">
            hstemhm
            110 134 return
          </CharString>
          <CharString index="110">
            0 vhcurveto
            endchar
          </CharString>
          <CharString index="111">
            rmoveto
            77 hlineto
            hintmask 10100000
            26 117 -33 callgsubr
            endchar
          </CharString>
          <CharString index="112">
            -38 callgsubr
            endchar
          </CharString>
          <CharString index="113">
            29 0 177 -156 -21 177 -20 535 return
          </CharString>
          <CharString index="114">
            rmoveto
            247 hlineto
            17 69 rlineto
            -247 hlineto
            endchar
          </CharString>
          <CharString index="115">
            rmoveto
            13 callsubr
          </CharString>
          <CharString index="116">
            rlineto
            141 hlineto
            return
          </CharString>
          <CharString index="117">
            rlineto
            -110 hlineto
            -16 -64 rlineto
            110 hlineto
            -44 return
          </CharString>
          <CharString index="118">
            -207 -10 65 380 65 148 -20 hstem
            return
          </CharString>
          <CharString index="119">
            159 434 rmoveto
            -152 111 -121 return
          </CharString>
          <CharString index="120">
            -24 callgsubr
            endchar
          </CharString>
          <CharString index="121">
            -21 312 -20 hstem
            return
          </CharString>
          <CharString index="122">
            58 203 61 hstem
            return
          </CharString>
          <CharString index="123">
            485 489 rmoveto
            return
          </CharString>
          <CharString index="124">
            -20 144 90 hstemhm
            return
          </CharString>
          <CharString index="125">
            120 7 158 return
          </CharString>
          <CharString index="126">
            rlineto
            -64 hlineto
            endchar
          </CharString>
          <CharString index="127">
            29 0 740 -27 -21 48 48 0 -20 return
          </CharString>
          <CharString index="128">
            0 0 68 246 52 314 21 hstemhm
            return
          </CharString>
          <CharString index="129">
            265 66 hstem
            115 331 rmoveto
            -66 return
          </CharString>
        <CharString name=".notdef">
          -302 endchar
        </CharString>
        <CharString name=".null">
          -525 endchar
        </CharString>
        <CharString name="A">
          29 21 -55 callgsubr
          354 76 hintmask 11011110
          24 hmoveto
          78 hlineto
          -81 callsubr
          hintmask 11100110
          -87 callsubr
          endchar
        </CharString>
        <CharString name="AE">
          -83 callgsubr
          endchar
        </CharString>
        <CharString name="AEacute">
          -83 callgsubr
          326 538 -89 callsubr
          endchar
        </CharString>
        <CharString name="Aacute">
          29 21 -55 callgsubr
          178 57 119 76 hintmask 11011111
          388 -67 callsubr
          -355 -842 rmoveto
          78 hlineto
          -81 callsubr
          hintmask 11100111
          -87 callsubr
          endchar
        </CharString>
        <CharString name="Abreve">
          29 21 -21 177 67 380 68 -47 -21 68 -20 123 60 hstemhm
          24 78 245 66 43 76 31 66 hintmask 1101111111000000
          347 922 rmoveto
          -93 callgsubr
          -389 -922 rmoveto
          78 hlineto
          -81 callsubr
          hintmask 1110011111000000
          -87 callsubr
          endchar
        </CharString>
        <CharString name="Acircumflex">
          29 0 874 -853 -21 814 -21 138 -20 hstemhm
          303 82 123 96 hintmask 01111100
          303 793 rmoveto
          82 hlineto
          hintmask 10011100
          96 81 rlineto
          hintmask 01111100
          54 -81 -5 callgsubr
          -96 138 rlineto
          -41 hlineto
          -443 -931 rmoveto
          78 hlineto
          hintmask 11011100
          89 177 rlineto
          259 hlineto
          -34 callsubr
        </CharString>
        <CharString name="Adieresis">
          29 0 907 -886 -21 177 730 -72 -21 93 -20 hstemhm
          341 60 127 61 hintmask 01011110
          341 -60 callgsubr
          23 93 rlineto
          -62 hlineto
          hintmask 10000110
          -526 -907 rmoveto
          78 hlineto
          hintmask 01100110
          -71 callsubr
          hintmask 10000110
          -34 callsubr
        </CharString>
        <CharString name="Agrave">
          29 21 -55 callgsubr
          166 56 132 76 hintmask 11011111
          363 -70 callsubr
          -524 -836 rmoveto
          78 hlineto
          -81 callsubr
          hintmask 11100111
          -87 callsubr
          endchar
        </CharString>
        <CharString name="Amacron">
          6 callsubr
          197 -39 -21 hstemhm
          24 78 213 293 hintmask 01101110
          315 829 rmoveto
          293 hlineto
          hintmask 01110110
          14 60 rlineto
          -294 hlineto
          hintmask 10001110
          -304 -889 -7 callsubr
          hintmask 10010110
          -14 692 rlineto
          -149 hlineto
          -87 callsubr
          endchar
        </CharString>
        <CharString name="Aogonek">
          29 1 callgsubr
          29 -55 callgsubr
          256 82 16 76 hintmask 1011011111000000
          24 hmoveto
          78 hlineto
          -30 callgsubr
          -176 rlineto
          -38 -31 -60 -62 -49 -72 callgsubr
          34 57 58 30 25 vhcurveto
          5 4 hlineto
          -14 688 rlineto
          -149 hlineto
          hintmask 1101100111000000
          -87 callsubr
          endchar
        </CharString>
        <CharString name="Aring">
          20 callsubr
          hstemhm
          400 159 -80 80 hintmask 10010100
          -72 callsubr
          hintmask 01101000
          177 496 rmoveto
          -45 callsubr
          -7 -29 -22 -18 -32 -1 rrcurveto
          -10 hlineto
          -31 2 -12 20 6 26 rrcurveto
          endchar
        </CharString>
        <CharString name="Aringacute">
          20 callsubr
          122 -21 hstemhm
          400 159 -80 80 hintmask 10011010
          -72 callsubr
          164 632 rmoveto
          228 86 -7 66 -76 callsubr
          hintmask 01101100
          20 -194 rmoveto
          -45 callsubr
          -7 -29 -22 -18 -32 -1 rrcurveto
          -5 hlineto
          -35 -13 21 27 6 hvcurveto
          endchar
        </CharString>
        <CharString name="Atilde">
          29 0 804 -783 -21 177 748 -121 -20 153 -21 hstemhm
          302 87 156 82 hintmask 01011110
          627 916 rmoveto
          0 -62 -46 -20 vhcurveto
          hintmask 01100110
          -29 -62 55 -49 hhcurveto
          -38 -67 -60 0 hvcurveto
          2 -54 rlineto
          0 65 49 22 vhcurveto
          hintmask 10001110
          32 65 -56 44 hhcurveto
          37 63 59 0 hvcurveto
          -606 -863 rmoveto
          78 hlineto
          hintmask 01100110
          -71 callsubr
          hintmask 10001110
          -34 callsubr
        </CharString>
        <CharString name="B">
          52 0 67 253 66 -45 -21 305 67 hstemhm
          237 61 203 80 -33 78 hintmask 10111100
          237 692 rmoveto
          -159 -692 rlineto
          238 hlineto
          173 92 97 142 62 -28 35 -56 22 hvcurveto
          hintmask 10111010
          71 31 58 64 103 vvcurveto
          98 -58 38 -108 vhcurveto
          -74 -372 rmoveto
          hintmask 11011100
          66 49 -18 -65 -103 -62 -67 -107 hvcurveto
          -162 hlineto
          58 253 rlineto
          219 305 rmoveto
          hintmask 11011010
          70 31 -20 -60 -89 -61 -70 -90 hvcurveto
          -154 hlineto
          55 239 rlineto
          endchar
        </CharString>
        <CharString name="C">
          -21 -37 callgsubr
          hstem
          112 80 -94 callsubr
          endchar
        </CharString>
        <CharString name="CR">
          -302 endchar
        </CharString>
        <CharString name="Cacute">
          -21 -37 callgsubr
          hstem
          112 80 -94 callsubr
          -62 773 -89 callsubr
          endchar
        </CharString>
        <CharString name="Ccaron">
          -21 -37 callgsubr
          90 137 hstem
          112 80 246 58 -94 callsubr
          193 917 -88 callsubr
          endchar
        </CharString>
        <CharString name="Ccedilla">
          -21 -16 callsubr
          35 68 -53 -20 649 68 hstemhm
          112 80 73 40 11 62 hintmask 11011111
          9 callgsubr
          hintmask 11101111
          -44 callgsubr
          195 91 247 174 76 77 -15 0 vhcurveto
          17 60 rlineto
          0 -87 23 -79 -246 -103 -302 -212 -114 49 -67 100 -14 vhcurveto
          -18 -80 -95 callgsubr
          -54 callsubr
          9 35 rlineto
          5 hlineto
          79 89 22 0 hvcurveto
          endchar
        </CharString>
        <CharString name="Ccircumflex">
          -21 -37 callgsubr
          hstem
          112 80 -94 callsubr
          -138 781 -93 callsubr
          -41 hlineto
          endchar
        </CharString>
        <CharString name="Cdotaccent">
          -21 -10 68 133 -21 464 68 -33 17 callsubr
          112 80 258 63 hintmask 11011110
          9 callgsubr
          -44 callgsubr
          vhcurveto
          hintmask 11101110
          195 91 247 174 76 77 -15 0 vhcurveto
          17 60 rlineto
          0 -87 23 -79 -246 -103 -302 -212 -129 63 -69 130 79 89 22 0 vhcurveto
          -23 781 -30 callsubr
          endchar
        </CharString>
        <CharString name="D">
          82 0 68 556 68 hstem
          78 93 401 80 vstem
          317 hmoveto
          -10 callsubr
          -160 -692 -11 callsubr
          127 556 -13 callsubr
        </CharString>
        <CharString name="DLE">
          -525 endchar
        </CharString>
        <CharString name="Dcaron">
          82 0 68 556 68 100 137 hstem
          78 93 228 58 115 80 vstem
          78 hmoveto
          -69 callgsubr
          222 hlineto
          122 70 -58 -148 -211 -104 -275 -231 hvcurveto
          255 486 rmoveto
          98 -38 40 -89 vhcurveto
          -147 hlineto
          -127 -556 rlineto
          157 hlineto
          165 79 256 162 hvcurveto
          55 443 -88 callsubr
          endchar
        </CharString>
        <CharString name="Dcroat">
          86 0 68 241 77 238 68 hstem
          82 93 401 80 vstem
          321 hmoveto
          -19 callgsubr
          -69 hlineto
          -16 -77 rlineto
          67 -27 callgsubr
          141 hlineto
          18 77 rlineto
          -142 hlineto
          55 238 -13 callsubr
        </CharString>
        <CharString name="Delta">
          35 0 66 529 65 hstem
          85 57 rmoveto
          -57 453 56 vlineto
          -159 604 rlineto
          -135 hlineto
          80 -65 rmoveto
          136 -529 rlineto
          -298 hlineto
          136 529 rlineto
          endchar
        </CharString>
        <CharString name="E">
          -20 0 -23 callgsubr
          hstem
          78 92 vstem
          78 hmoveto
          386 hlineto
          -103 callsubr
        </CharString>
        <CharString name="Eacute">
          -20 0 68 250 68 399 -20 106 65 hstem
          368 9 vstem
          377 -67 callsubr
          -290 -842 rmoveto
          386 hlineto
          -103 callsubr
        </CharString>
        <CharString name="Ebreve">
          -20 0 -23 callgsubr
          104 60 hstemhm
          78 92 162 66 150 66 hintmask 10111111
          332 923 rmoveto
          -93 callgsubr
          -320 -923 rmoveto
          386 hlineto
          hintmask 01111111
          -103 callsubr
        </CharString>
        <CharString name="Ecaron">
          -20 0 -23 callgsubr
          107 137 hstemhm
          78 92 224 58 hintmask 10111110
          622 936 -88 callsubr
          -387 -799 rmoveto
          386 hlineto
          hintmask 01111110
          -103 callsubr
        </CharString>
        <CharString name="Ecircumflex">
          -20 68 0 723 -20 20 81 57 0 hstem
          342 232 vstem
          342 791 -93 callsubr
          -41 hlineto
          -428 -929 rmoveto
          386 hlineto
          -103 callsubr
        </CharString>
        <CharString name="Edieresis">
          -20 0 68 746 -20 hstemhm
          332 21 vstemhm
          332 -60 callgsubr
          hintmask 11100000
          23 -46 callsubr
          -463 -907 rmoveto
          386 hlineto
          -103 callsubr
        </CharString>
        <CharString name="Edotaccent">
          -20 0 -20 20 68 160 -21 111 68 238 68 14 17 callsubr
          78 92 248 63 hintmask 1011011110000000
          418 830 -30 callsubr
          -360 -920 rmoveto
          386 hlineto
          hintmask 0111011110000000
          15 68 rlineto
          -309 hlineto
          58 250 rlineto
          253 hlineto
          16 68 rlineto
          -254 hlineto
          hintmask 1011101110000000
          -15 callgsubr
          309 hlineto
          16 68 rlineto
          -386 hlineto
          endchar
        </CharString>
        <CharString name="Egrave">
          -20 0 68 250 68 394 86 -30 -20 hstemhm
          369 185 hintmask 11011000
          hintmask 11101000
          369 930 rmoveto
          -37 -64 rlineto
          hintmask 11011000
          188 -86 34 56 rlineto
          -476 -836 rmoveto
          386 hlineto
          -103 callsubr
        </CharString>
        <CharString name="Emacron">
          -20 0 68 250 68 437 -20 20 60 hstem
          305 13 vstem
          305 823 -32 callsubr
          -240 -883 rmoveto
          386 hlineto
          -103 callsubr
        </CharString>
        <CharString name="Eng">
          106 78 hmoveto
          73 hlineto
          143 617 rlineto
          20 hlineto
          107 -617 rlineto
          58 hlineto
          -24 -103 -16 -15 -81 -1 -12 -68 rcurveline
          151 20 29 160 37 hvcurveto
          132 574 27 116 -48 callgsubr
          -93 -403 -49 -210 rlineto
          -18 hlineto
          -104 613 rlineto
          -137 hlineto
          endchar
        </CharString>
        <CharString name="Eogonek">
          -20 -204 67 137 -23 callgsubr
          hstemhm
          78 92 104 82 hintmask 11011110
          78 hmoveto
          292 hlineto
          -38 -32 -58 -61 -48 -72 callgsubr
          34 57 58 30 25 vhcurveto
          21 hlineto
          hintmask 10111110
          -103 callsubr
        </CharString>
        <CharString name="Eth">
          86 309 177 -100 306 hstemhm
          82 290 -285 569 hintmask 10100000
          hintmask 10010000
          321 hmoveto
          hintmask 01010000
          -19 callgsubr
          hintmask 10010000
          -69 hlineto
          hintmask 10100000
          -15 -77 rlineto
          66 -27 callgsubr
          hintmask 01010000
          142 hlineto
          17 77 rlineto
          hintmask 10100000
          -142 hlineto
          55 238 -13 callsubr
        </CharString>
        <CharString name="Euro">
          35 -10 65 154 62 105 61 169 65 hstem
          152 76 vstem
          502 72 rmoveto
          0 -80 -17 -76 -82 -36 43 85 vhcurveto
          26 267 vlineto
          14 62 rlineto
          -275 hlineto
          5 35 7 36 11 34 rrcurveto
          276 hlineto
          14 61 rlineto
          -268 hlineto
          96 42 68 73 93 hhcurveto
          72 74 -15 0 hvcurveto
          16 58 rlineto
          0 -83 22 -76 -142 -92 -106 -128 -51 vhcurveto
          -47 hlineto
          -15 -61 rlineto
          42 hlineto
          -10 -35 -8 -36 -4 -34 rrcurveto
          -44 hlineto
          -14 -62 rlineto
          52 -29 hlineto
          -124 60 -66 124 76 85 21 3 callsubr
        </CharString>
        <CharString name="F">
          -43 0 0 21 -21 284 67 273 68 0 -20 hstem
          78 76 vstem
          78 hmoveto
          76 hlineto
          66 284 rlineto
          256 hlineto
          16 67 rlineto
          -256 hlineto
          62 273 rlineto
          301 hlineto
          16 68 rlineto
          -377 hlineto
          endchar
        </CharString>
        <CharString name="G">
          -26 callsubr
          2 callsubr
          -131 80 71 36 203 92 hintmask 1001110110000000
          398 293 -55 callsubr
          vhcurveto
          hintmask 0111101110000000
          -87 callgsubr
          endchar
        </CharString>
        <CharString name="Gbreve">
          -26 callsubr
          76 70 2 callsubr
          -131 80 71 36 75 72 56 92 11 72 hintmask 1001111011110000
          375 923 rmoveto
          -2 -13 -1 -12 -12 vvcurveto
          -60 2 37 -48 77 hhcurveto
          98 68 62 83 24 hvcurveto
          -72 hlineto
          -44 -12 -35 -31 -50 hhcurveto
          -43 -20 23 32 6 0 7 1 7 hvcurveto
          -49 -630 -55 callsubr
          vhcurveto
          hintmask 0111110111110000
          -87 callgsubr
          endchar
        </CharString>
        <CharString name="Gcircumflex">
          47 58 721 -700 -21 235 637 -317 166 2 callsubr
          20 36 121 38 -8 183 hintmask 01011110
          339 779 rmoveto
          82 hlineto
          -28 callgsubr
          hintmask 10001101
          76 hlineto
          hintmask 01101101
          -87 -7 callgsubr
          -53 hlineto
          hintmask 01011101
          hintmask 01101101
          -96 -637 -55 callsubr
          -87 -50 38 89 vhcurveto
          hintmask 01011110
          188 80 261 186 90 100 -21 0 vhcurveto
          -73 callgsubr
          endchar
        </CharString>
        <CharString name="Gcommaaccent">
          -26 callsubr
          2 callsubr
          -131 80 64 70 -63 36 203 92 hintmask 1001110011000000
          398 293 -55 callsubr
          vhcurveto
          hintmask 0111101011000000
          -87 callgsubr
          hintmask 0111110101000000
          -156 -432 -74 callgsubr
          endchar
        </CharString>
        <CharString name="Gdotaccent">
          47 185 108 -107 611 -184 273 -252 -21 273 -20 2 callsubr
          20 36 98 61 10 66 hintmask 0100111110000000
          465 797 rmoveto
          70 hlineto
          hintmask 1010011110000000
          21 89 rlineto
          -70 hlineto
          hintmask 0100111110000000
          hintmask 1001111110000000
          -88 -593 -55 callsubr
          -87 -50 38 89 188 80 261 186 90 100 -21 0 vhcurveto
          19 58 rlineto
          0 -98 31 -101 vhcurveto
          hintmask 0100111110000000
          -76 callgsubr
          hvcurveto
          80 342 rlineto
          -182 hlineto
          endchar
        </CharString>
        <CharString name="H">
          -70 callgsubr
          endchar
        </CharString>
        <CharString name="Hbar">
          113 21 -21 312 73 119 68 120 -20 hstem
          245 73 322 73 vstem
          122 503 rmoveto
          79 hlineto
          -116 -503 -18 callsubr
          72 312 rlineto
          322 hlineto
          -72 -312 rlineto
          74 hlineto
          115 503 rlineto
          77 hlineto
          18 69 rlineto
          -79 13 callgsubr
          -322 13 callgsubr
          -80 hlineto
          -15 -68 rlineto
          125 -119 rmoveto
          27 118 rlineto
          322 hlineto
          -27 -118 rlineto
          endchar
        </CharString>
        <CharString name="Hcircumflex">
          -70 callgsubr
          -207 477 -93 callsubr
          -41 hlineto
          endchar
        </CharString>
        <CharString name="I">
          -293 21 -21 hstem
          78 76 84 76 vstem
          78 hmoveto
          -66 callgsubr
        </CharString>
        <CharString name="Iacute">
          -293 806 -21 hstemhm
          230 228 -219 228 hintmask 10100000
          239 785 rmoveto
          228 86 rlineto
          hintmask 11000000
          -9 65 -76 callsubr
          hintmask 10100000
          -152 -842 rmoveto
          -66 callgsubr
        </CharString>
        <CharString name="Ibreve">
          -293 21 -21 795 60 hstemhm
          78 76 32 66 -14 76 88 66 hintmask 11110100
          186 922 rmoveto
          -93 callgsubr
          -174 -922 10 callgsubr
          hintmask 11101100
          -49 callgsubr
          endchar
        </CharString>
        <CharString name="Icircumflex">
          -293 812 -21 hstem
          143 82 96 54 vstem
          143 791 -93 callsubr
          -41 hlineto
          -229 -929 rmoveto
          -66 callgsubr
        </CharString>
        <CharString name="Idieresis">
          -293 840 -21 hstemhm
          173 60 -39 62 hintmask 11000000
          173 819 rmoveto
          60 hlineto
          hintmask 10100000
          23 -46 callsubr
          hintmask 11000000
          11 callgsubr
          -304 -912 rmoveto
          -66 callgsubr
        </CharString>
        <CharString name="Idotaccent">
          -293 21 -21 228 -21 499 17 callsubr
          78 76 84 76 -44 63 hintmask 11111010
          270 830 -30 callsubr
          -212 -920 10 callgsubr
          hintmask 11111100
          -49 callgsubr
          endchar
        </CharString>
        <CharString name="Igrave">
          -293 857 -21 hstem
          149 37 151 34 vstem
          186 -70 callsubr
          -293 -836 rmoveto
          -66 callgsubr
        </CharString>
        <CharString name="Imacron">
          -293 854 -21 hstemhm
          153 293 -280 294 hintmask 11000000
          153 833 rmoveto
          293 hlineto
          hintmask 10100000
          14 60 rlineto
          -294 hlineto
          hintmask 11000000
          -88 -893 rmoveto
          -66 callgsubr
        </CharString>
        <CharString name="Iogonek">
          -293 1 callgsubr
          29 -21 hstemhm
          -23 82 19 76 84 76 hintmask 11011100
          132 -132 rmoveto
          0 -34 -5 -15 -16 -8 7 13 vhcurveto
          hintmask 10111100
          36 62 59 33 22 vhcurveto
          -49 callgsubr
          -160 -689 rlineto
          -37 -31 -64 -63 -50 vvcurveto
          -40 25 -23 46 32 44 9 3 callsubr
        </CharString>
        <CharString name="Itilde">
          -293 931 -21 hstem
          144 105 140 82 vstem
          471 910 -92 callsubr
          -396 -857 rmoveto
          -66 callgsubr
        </CharString>
        <CharString name="J">
          -61 callsubr
          endchar
        </CharString>
        <CharString name="Jcircumflex">
          -61 callsubr
          -44 675 -93 callsubr
          -41 hlineto
          endchar
        </CharString>
        <CharString name="K">
          -4 21 -21 304 68 hstem
          238 76 108 81 73 86 vstem
          422 hmoveto
          -14 callgsubr
          -18 callgsubr
        </CharString>
        <CharString name="Kcommaaccent">
          -4 21 -21 304 68 hstemhm
          229 70 -61 76 108 81 73 86 hintmask 11101100
          229 -73 -74 callgsubr
          280 283 rmoveto
          -14 callgsubr
          rlineto
          hintmask 11011100
          -18 callgsubr
        </CharString>
        <CharString name="L">
          -92 0 68 645 -21 hstem
          238 76 vstem
          427 hmoveto
          -50 callsubr
        </CharString>
        <CharString name="Lacute">
          -92 785 86 -8 -21 hstemhm
          307 120 hintmask 10100000
          316 785 rmoveto
          228 86 -9 65 rlineto
          hintmask 01100000
          -76 callsubr
          hintmask 10100000
          120 -842 rmoveto
          -50 callsubr
        </CharString>
        <CharString name="Lcaron">
          -72 0 68 413 -21 232 -20 41 -21 hstem
          238 76 172 68 vstem
          554 -25 callsubr
          68 hlineto
          -72 -460 rmoveto
          -50 callsubr
        </CharString>
        <CharString name="Lcommaaccent">
          -92 0 68 645 -21 hstemhm
          207 70 -39 76 hintmask 11100000
          207 -73 -74 callgsubr
          307 283 rmoveto
          0 callgsubr
          hintmask 11010000
          144 624 rlineto
          -76 -62 callsubr
          endchar
        </CharString>
        <CharString name="Lslash">
          -91 0 68 -68 77 636 -21 hstem
          240 76 vstem
          429 hmoveto
          0 callgsubr
          59 256 190 119 -23 55 -148 -93 66 287 -4 callgsubr
          -79 -342 -98 -61 25 -54 rlineto
          -1 vlineto
          54 34 -62 -268 rlineto
          endchar
        </CharString>
        <CharString name="M">
          255 21 -21 624 -20 20 68 hstemhm
          78 76 200 80 192 76 hintmask 11011100
          78 hmoveto
          76 hlineto
          144 624 rlineto
          10 hlineto
          46 -599 rlineto
          80 hlineto
          326 599 rlineto
          11 hlineto
          -145 -624 -41 callgsubr
          hintmask 10111100
          -69 callgsubr
          -131 hlineto
          -320 -586 -44 586 rlineto
          -129 hlineto
          endchar
        </CharString>
        <CharString name="N">
          -2 callgsubr
          hstem
          78 73 487 75 vstem
          78 hmoveto
          -90 callsubr
        </CharString>
        <CharString name="Nacute">
          106 0 -20 637 -20 188 0 hstem
          294 20 88 228 vstem
          402 -67 callsubr
          -315 -842 rmoveto
          -90 callsubr
        </CharString>
        <CharString name="Ncaron">
          -2 callgsubr
          117 137 hstem
          78 73 290 58 139 75 vstem
          669 926 -88 callsubr
          -434 -789 rmoveto
          -90 callsubr
        </CharString>
        <CharString name="Ncommaaccent">
          -2 callgsubr
          hstem
          78 73 129 70 288 75 vstem
          280 -73 -74 callgsubr
          -115 283 rmoveto
          -90 callsubr
        </CharString>
        <CharString name="Ntilde">
          106 0 0 79 -20 555 0 78 -20 hstemhm
          78 73 487 75 -70 73 hintmask 11111010
          666 914 -92 callsubr
          -591 -861 rmoveto
          73 hlineto
          143 617 rlineto
          20 hlineto
          108 -617 rlineto
          131 hlineto
          hintmask 11111100
          -69 callgsubr
          -75 hlineto
          -141 -613 20 callgsubr
          -104 613 rlineto
          -136 hlineto
          endchar
        </CharString>
        <CharString name="O">
          103 -37 callgsubr
          hstem
          114 79 399 80 vstem
          335 58 rmoveto
          -104 -38 39 105 128 50 186 99 81 hvcurveto
          -79 callsubr
        </CharString>
        <CharString name="OE">
          333 815 -1 rmoveto
          18 76 rlineto
          -313 hlineto
          57 242 256 -2 16 73 rlineto
          -257 hlineto
          57 233 rlineto
          314 hlineto
          16 75 rlineto
          -385 hlineto
          4 -25 -86 6 -20 hhcurveto
          -180 -96 -123 -238 -56 hvcurveto
          -17 -72 -8 -59 1 -51 rrcurveto
          -113 3 54 -60 131 hhcurveto
          34 58 5 4 45 hvcurveto
          -113 66 rmoveto
          -98 -37 42 86 42 8 49 15 62 hvcurveto
          192 45 63 93 138 hhcurveto
          42 60 -4 -3 22 hvcurveto
          -131 -551 rlineto
          -3 -38 -68 -5 -21 hhcurveto
          endchar
        </CharString>
        <CharString name="Oacute">
          103 -37 callgsubr
          hstem
          114 79 399 80 vstem
          335 58 -13 callgsubr
          -105 callgsubr
          99 795 -89 callsubr
          endchar
        </CharString>
        <CharString name="Obreve">
          103 -37 callgsubr
          94 60 hstemhm
          114 79 184 66 149 80 -79 66 hintmask 11111010
          377 923 rmoveto
          -93 callgsubr
          -108 -865 -13 callgsubr
          hintmask 11111100
          -105 callgsubr
          endchar
        </CharString>
        <CharString name="Ocircumflex">
          103 -37 callgsubr
          hstem
          114 79 399 80 vstem
          335 58 -13 callgsubr
          -105 callgsubr
          21 803 -93 callsubr
          -41 hlineto
          endchar
        </CharString>
        <CharString name="Odieresis">
          103 597 308 -93 93 hstemhm
          193 367 -121 153 hintmask 01010000
          371 812 rmoveto
          68 -29 callsubr
          hintmask 01100000
          168 -93 rmoveto
          68 hlineto
          21 93 rlineto
          -68 hlineto
          -246 -847 rmoveto
          -104 -38 39 105 hvcurveto
          hintmask 10010000
          -83 callsubr
        </CharString>
        <CharString name="Ograve">
          103 58 872 -296 202 hstemhm
          335 116 55 58 hintmask 01110000
          hintmask 10110000
          413 -70 callsubr
          hintmask 01110000
          -263 -778 rmoveto
          -104 -38 39 105 128 50 186 99 81 hvcurveto
          hintmask 10110000
          25 31 37 12 41 hhcurveto
          99 42 -44 -100 -137 -45 -176 -96 -79 hvcurveto
          hintmask 01110000
          -104 callsubr
          endchar
        </CharString>
        <CharString name="Ohungarumlaut">
          103 597 204 -30 30 hstemhm
          193 195 204 156 hintmask 01110000
          577 771 -22 callgsubr
          -35 callgsubr
          -10 -743 rmoveto
          -104 -38 39 105 hvcurveto
          hintmask 10110000
          -83 callsubr
        </CharString>
        <CharString name="Omacron">
          103 -37 callgsubr
          hstem
          114 79 399 80 vstem
          335 58 -13 callgsubr
          -105 callgsubr
          25 833 -32 callsubr
          endchar
        </CharString>
        <CharString name="Omega">
          35 -9 66 545 69 hstem
          112 80 283 80 vstem
          99 57 rmoveto
          -66 196 57 vlineto
          0 -103 197 111 vvcurveto
          166 17 80 124 124 18 -80 -166 -111 -104 -197 0 vhcurveto
          -57 197 66 -122 vlineto
          0 109 178 141 vvcurveto
          196 -49 99 -173 -173 -48 -99 -196 -141 108 -178 3 callsubr
        </CharString>
        <CharString name="Oslash">
          103 -114 25 79 68 296 422 -142 68 hstemhm
          114 79 130 348 -256 45 132 80 hintmask 11101011
          111 -52 callsubr
          rlineto
          hintmask 11011100
          -77 callgsubr
          hintmask 11101011
          -175 -257 rlineto
          -56 callsubr
          endchar
        </CharString>
        <CharString name="Oslashacute">
          105 58 784 -64 19 hstemhm
          70 42 231 306 hintmask 01110000
          112 -52 callsubr
          -77 callgsubr
          -175 -257 rlineto
          hintmask 10110000
          -56 callsubr
          hintmask 01110000
          84 720 rmoveto
          229 86 -10 72 rlineto
          hintmask 10110000
          -76 callsubr
          endchar
        </CharString>
        <CharString name="Otilde">
          103 -37 callgsubr
          hstemhm
          114 77 -77 79 398 77 -76 80 hintmask 11011000
          678 914 -92 callsubr
          -346 -803 -13 callgsubr
          hintmask 11100100
          -105 callgsubr
          endchar
        </CharString>
        <CharString name="P">
          22 21 -21 232 68 324 68 hstem
          78 76 393 80 vstem
          359 232 rmoveto
          173 95 123 173 110 -51 54 -120 hvcurveto
          -218 -3 callsubr
          54 232 rlineto
          16 68 rmoveto
          74 324 rlineto
          149 hlineto
          73 27 -33 -64 -124 -57 -103 -119 hvcurveto
          endchar
        </CharString>
        <CharString name="Q">
          103 -145 779 -622 46 hstemhm
          335 116 55 2 hintmask 10110000
          326 -10 rmoveto
          22 22 3 4 20 hvcurveto
          45 -142 73 24 -48 142 16 8 16 10 14 12 rlinecurve
          113 93 53 181 170 vvcurveto
          144 -76 63 -139 -72 -62 -26 -46 -50 vhcurveto
          -105 -95 -54 -174 -164 vvcurveto
          -149 67 -58 145 vhcurveto
          hintmask 01110000
          9 68 -58 callsubr
          endchar
        </CharString>
        <CharString name="R">
          -24 callsubr
          hstemhm
          78 76 225 72 -1 77 22 80 hintmask 11111010
          hintmask 11110110
          450 hmoveto
          hintmask 11111010
          -75 callgsubr
        </CharString>
        <CharString name="Racute">
          -24 callsubr
          hstemhm
          78 76 225 72 -1 77 22 80 hintmask 11111010
          379 259 -41 callsubr
          hintmask 11110110
          76 -269 -33 callgsubr
          hintmask 11111010
          -27 callsubr
          -192 262 -89 callsubr
          endchar
        </CharString>
        <CharString name="Rcaron">
          -24 callsubr
          97 137 hstemhm
          78 76 225 72 -65 58 6 77 22 80 hintmask 1111101110000000
          614 926 -88 callsubr
          hintmask 1111110010000000
          -78 -530 -41 callsubr
          hintmask 1111101110000000
          76 -269 -33 callgsubr
          hintmask 1111110010000000
          -27 callsubr
          endchar
        </CharString>
        <CharString name="Rcommaaccent">
          -24 callsubr
          hstemhm
          78 76 97 70 58 72 -1 77 22 80 hintmask 11111101
          164 -38 callsubr
          199 73 rmoveto
          hintmask 11111011
          -75 callgsubr
        </CharString>
        <CharString name="S">
          -97 callsubr
          endchar
        </CharString>
        <CharString name="Sacute">
          -97 callsubr
          -225 168 -89 callsubr
          endchar
        </CharString>
        <CharString name="Scaron">
          -26 -10 68 -67 75 567 75 -73 67 90 137 hstemhm
          162 75 -75 78 153 58 -25 79 -76 75 hintmask 0110110001000000
          621 929 rmoveto
          -77 hlineto
          hintmask 0110110100000000
          -93 -82 -58 82 -48 callgsubr
          98 -137 rlineto
          47 hlineto
          126 -118 rmoveto
          hintmask 0101101001000000
          0 -94 28 -92 -64 callsubr
          vhcurveto
          hintmask 0110110010000000
          89 -31 24 -16 -57 vvcurveto
          hintmask 1010110001000000
          -105 -61 -59 -105 -75 -116 18 0 vhcurveto
          -13 -60 rlineto
          0 106 -26 95 vhcurveto
          hintmask 0110101010000000
          150 98 89 150 90 -40 31 -101 36 hvcurveto
          -92 33 -32 14 56 vvcurveto
          hintmask 0101110001000000
          96 62 50 99 70 106 -18 3 callsubr
        </CharString>
        <CharString name="Scedilla">
          -26 -16 callsubr
          35 68 -67 75 -61 -20 648 75 -73 67 hstemhm
          162 78 -11 40 12 62 83 79 -76 75 hintmask 1100110011010000
          590 674 rmoveto
          hintmask 1100101011010000
          0 -94 28 -92 vhcurveto
          hintmask 1100110101010000
          -64 callsubr
          hvcurveto
          hintmask 1100110011100000
          89 -31 24 -16 -57 vvcurveto
          hintmask 1110010011010000
          -105 -61 -59 -105 -75 -116 18 0 vhcurveto
          -13 -60 rlineto
          hintmask 1101010011010000
          0 84 -21 85 -4 vhcurveto
          -17 -78 -95 callgsubr
          -54 callsubr
          hintmask 1110010011010000
          9 35 rlineto
          hintmask 1100110011100000
          145 3 95 88 148 vvcurveto
          90 -40 31 -101 36 vhcurveto
          hintmask 1100110101010000
          -92 33 -32 14 56 vvcurveto
          hintmask 1100101011010000
          96 62 50 99 70 106 -18 3 callsubr
        </CharString>
        <CharString name="Scircumflex">
          -97 callsubr
          -298 176 -93 callsubr
          -41 hlineto
          endchar
        </CharString>
        <CharString name="Scommaaccent">
          -26 -10 68 577 67 hstemhm
          162 78 -29 70 145 79 hintmask 11011000
          211 -73 -74 callgsubr
          466 957 rmoveto
          0 -94 28 -92 vhcurveto
          hintmask 11101000
          -64 callsubr
          hvcurveto
          89 -31 24 -16 -57 vvcurveto
          -105 -61 -59 -105 -75 -116 18 0 vhcurveto
          -13 -60 rlineto
          0 106 -26 95 150 98 89 150 90 -40 31 -101 36 vhcurveto
          -92 33 -32 14 56 vvcurveto
          96 62 50 99 70 106 -18 3 callsubr
        </CharString>
        <CharString name="T">
          -56 21 -21 624 68 hstem
          195 76 vstem
          154 624 rmoveto
          185 hlineto
          -60 callsubr
        </CharString>
        <CharString name="Tbar">
          -51 0 295 91 -21 hstem
          130 383 vstem
          156 624 rmoveto
          185 hlineto
          -60 -259 rlineto
          -151 hlineto
          -16 -70 rlineto
          151 hlineto
          -68 -295 -41 callgsubr
          68 295 rlineto
          154 hlineto
          18 70 rlineto
          -156 hlineto
          60 259 rlineto
          186 hlineto
          16 68 rlineto
          -447 hlineto
          endchar
        </CharString>
        <CharString name="Tcaron">
          -56 21 -21 624 68 97 137 hstem
          195 76 85 58 vstem
          584 926 -88 callsubr
          -273 -165 rmoveto
          185 hlineto
          -60 callsubr
        </CharString>
        <CharString name="Tcedilla">
          -56 -16 callsubr
          50 -20 36 -21 624 68 hstemhm
          195 76 -57 39 14 62 hintmask 11101011
          329 -124 rmoveto
          -54 callsubr
          hintmask 11011011
          11 45 rlineto
          hintmask 11011100
          18 hlineto
          144 624 rlineto
          186 hlineto
          16 68 rlineto
          -447 hlineto
          -16 -68 rlineto
          185 hlineto
          -144 -624 rlineto
          hintmask 11011011
          19 hlineto
          -20 -87 -95 callgsubr
          endchar
        </CharString>
        <CharString name="Tcommaaccent">
          -56 21 -21 624 68 hstemhm
          186 70 -61 76 hintmask 11100000
          186 -73 -74 callgsubr
          55 907 rmoveto
          185 hlineto
          hintmask 11010000
          -60 callsubr
        </CharString>
        <CharString name="Thorn">
          24 21 -21 120 74 318 73 111 -20 hstem
          240 74 209 75 vstem
          354 194 rmoveto
          -159 hlineto
          75 318 155 -1 104 -1 14 -71 -20 -80 rlinecurve
          -94 -24 -51 -71 -94 hhcurveto
          -17 -74 rmoveto
          140 -1 90 99 31 141 rrcurveto
          123 26 -38 103 -144 hhcurveto
          -155 hlineto
          27 111 -48 callgsubr
          -164 -696 rlineto
          74 hlineto
          28 120 rlineto
          endchar
        </CharString>
        <CharString name="U">
          -92 callgsubr
          endchar
        </CharString>
        <CharString name="Uacute">
          -92 callgsubr
          187 568 -89 callsubr
          endchar
        </CharString>
        <CharString name="Ubreve">
          69 -10 68 634 -20 124 60 hstem
          354 66 150 66 vstem
          354 923 rmoveto
          -93 callgsubr
          -111 -231 -107 callsubr
          endchar
        </CharString>
        <CharString name="Ucircumflex">
          -92 callgsubr
          123 576 -93 callsubr
          -41 hlineto
          endchar
        </CharString>
        <CharString name="Udieresis">
          69 692 120 0 -20 hstem
          345 812 rmoveto
          68 -29 callsubr
          168 -93 rmoveto
          67 -29 callsubr
          -245 -213 -107 callsubr
          endchar
        </CharString>
        <CharString name="Ugrave">
          69 211 481 144 -20 hstem
          393 -70 callsubr
          -269 -144 -107 callsubr
          endchar
        </CharString>
        <CharString name="Uhungarumlaut">
          69 692 64 -1 -20 hstemhm
          hintmask 01000000
          546 755 -22 callgsubr
          hintmask 10000000
          -35 callgsubr
          -5 -93 -107 callsubr
          endchar
        </CharString>
        <CharString name="Umacron">
          -92 callgsubr
          132 606 -32 callsubr
          endchar
        </CharString>
        <CharString name="Uogonek">
          70 -204 67 127 68 -46 -20 700 -20 hstemhm
          208 82 hintmask 10111000
          310 692 rmoveto
          -77 hlineto
          -108 -467 rlineto
          -7 -27 -4 -37 -27 vvcurveto
          -94 70 -45 109 -4 vhcurveto
          -37 -34 -48 -54 -44 -72 callgsubr
          36 64 63 28 22 vhcurveto
          -63 8 -7 -6 -9 -6 -10 -9 rlinecurve
          hintmask 11011000
          6 6 -1 7 hhcurveto
          152 73 73 148 34 hvcurveto
          111 481 -33 callgsubr
          -111 -481 rlineto
          -101 -23 -44 -52 -109 hhcurveto
          -79 -49 23 63 22 4 27 6 24 hvcurveto
          endchar
        </CharString>
        <CharString name="Uring">
          69 841 -20 20 0 hstem
          597 841 -68 callgsubr
          -129 -149 -107 callsubr
          endchar
        </CharString>
        <CharString name="Utilde">
          69 692 117 105 -20 hstem
          647 914 -92 callsubr
          -341 -169 -107 callsubr
          endchar
        </CharString>
        <CharString name="V">
          20 0 0 21 -21 68 -20 644 -20 hstem
          181 77 3 45 295 77 vstem
          601 692 rmoveto
          -295 -624 rlineto
          -45 hlineto
          -3 624 -33 callgsubr
          9 -692 rlineto
          158 hlineto
          330 692 rlineto
          endchar
        </CharString>
        <CharString name="W">
          304 21 -21 71 -20 641 -20 hstem
          187 76 264 84 269 77 vstem
          187 692 -69 callsubr
          298 692 rlineto
          -88 callgsubr
        </CharString>
        <CharString name="Wacute">
          304 21 -21 71 -20 641 -20 24 -20 hstemhm
          187 76 264 84 269 77 hintmask 11011110
          505 -67 callsubr
          hintmask 11101110
          -309 -150 -69 callsubr
          298 692 rlineto
          -88 callgsubr
        </CharString>
        <CharString name="Wcircumflex">
          304 0 -20 831 -21 hstemhm
          187 413 -164 444 -354 19 hintmask 11010000
          436 790 -93 callsubr
          hintmask 11100000
          -41 hlineto
          hintmask 11010000
          hintmask 11100000
          -413 -236 rmoveto
          -27 -692 rlineto
          137 hlineto
          hintmask 11001000
          248 570 -19 -570 rlineto
          133 hlineto
          298 692 rlineto
          hintmask 11010000
          -88 callgsubr
        </CharString>
        <CharString name="Wdieresis">
          304 692 -20 163 -21 hstemhm
          297 248 -77 489 -280 62 hintmask 11010000
          468 -60 callgsubr
          hintmask 11101000
          23 -46 callsubr
          -490 -215 -69 callsubr
          hintmask 11010000
          298 692 rlineto
          -88 callgsubr
        </CharString>
        <CharString name="Wgrave">
          304 0 -20 821 -21 56 -20 hstem
          297 248 66 82 187 77 vstem
          508 -70 callsubr
          -506 -144 -69 callsubr
          298 692 rlineto
          -88 callgsubr
        </CharString>
        <CharString name="X">
          -12 12 85 84 80 155 79 vstem
          261 692 rmoveto
          -80 hlineto
          111 -345 -280 -347 rlineto
          85 hlineto
          227 287 92 -287 rlineto
          79 hlineto
          -112 343 276 349 rlineto
          -84 hlineto
          -224 -288 rlineto
          endchar
        </CharString>
        <CharString name="Y">
          -32 21 -21 hstemhm
          170 78 -42 73 279 83 hintmask 11010000
          641 692 -80 callsubr
          rlineto
          hintmask 10110000
          -65 callsubr
        </CharString>
        <CharString name="Yacute">
          -32 21 -21 249 49 398 -20 hstemhm
          170 78 -42 73 -3 70 212 83 hintmask 11110110
          345 -67 callsubr
          305 -150 -80 callsubr
          rlineto
          hintmask 11101010
          -65 callsubr
        </CharString>
        <CharString name="Ycircumflex">
          -32 949 -21 hstemhm
          272 82 82 205 -137 69 hintmask 11010000
          272 790 -93 callsubr
          hintmask 11100000
          -41 hlineto
          205 -236 -80 callsubr
          -65 callsubr
        </CharString>
        <CharString name="Ydieresis">
          -32 927 -21 hstemhm
          298 60 -39 166 22 62 hintmask 11010000
          298 813 rmoveto
          60 hlineto
          23 93 rlineto
          hintmask 10110000
          -62 hlineto
          hintmask 11010000
          hintmask 10110000
          11 callgsubr
          134 -214 -80 callsubr
          -65 callsubr
        </CharString>
        <CharString name="Ygrave">
          -32 390 -21 hstemhm
          248 81 12 300 -149 34 hintmask 11010000
          hintmask 11100000
          341 -70 callsubr
          hintmask 11010000
          115 -144 -80 callsubr
          -65 callsubr
        </CharString>
        <CharString name="Z">
          -30 0 68 556 68 hstem
          184 624 -78 callsubr
        </CharString>
        <CharString name="Zacute">
          -30 68 803 -274 27 hstemhm
          hintmask 10000000
          336 -67 callsubr
          hintmask 01000000
          -143 -218 rmoveto
          330 hlineto
          -6 -27 -448 -498 -22 -99 rlineto
          416 hlineto
          hintmask 10000000
          16 68 rlineto
          -332 hlineto
          6 24 448 498 24 102 rlineto
          -416 hlineto
          endchar
        </CharString>
        <CharString name="Zcaron">
          -30 0 68 7 16 513 16 4 68 96 137 hstem
          378 58 vstem
          606 925 -88 callsubr
          -265 -164 -78 callsubr
        </CharString>
        <CharString name="Zdotaccent">
          -30 0 68 160 -21 417 68 14 17 callsubr
          394 63 hintmask 11011100
          394 830 -30 callsubr
          hintmask 11101100
          -230 -296 -78 callsubr
        </CharString>
        <CharString name="a">
          -25 -63 callgsubr
          hstem
          89 77 vstem
          217 -10 -107 callgsubr
          endchar
        </CharString>
        <CharString name="aacute">
          -25 -63 callgsubr
          100 -21 hstem
          89 77 vstem
          217 -10 -107 callgsubr
          -2 151 -91 callgsubr
        </CharString>
        <CharString name="abreve">
          -25 -63 callgsubr
          83 62 hstem
          89 77 137 65 159 65 vstem
          217 -10 -107 callgsubr
          -39 286 -43 callsubr
          -90 callgsubr
        </CharString>
        <CharString name="acircumflex">
          -25 -1 739 -253 102 hstemhm
          217 124 hintmask 01100000
          241 587 rmoveto
          82 hlineto
          -28 callgsubr
          75 hlineto
          hintmask 10100000
          -86 -7 callgsubr
          -53 hlineto
          hintmask 01100000
          -179 -748 rmoveto
          87 83 116 0 hvcurveto
          hintmask 10100000
          -4 -21 -14 -86 0 vvcurveto
          73 3 rlineto
          -62 callgsubr
          hintmask 01100000
          76 325 rlineto
          0 -142 25 -63 -169 -83 -215 -156 -92 39 -57 89 vhcurveto
          125 455 rmoveto
          47 70 -14 0 hvcurveto
          -57 -245 rlineto
          0 -99 -131 -63 -56 -18 31 53 124 60 182 116 vhcurveto
          endchar
        </CharString>
        <CharString name="acute">
          21 610 -21 hstem
          279 596 -91 callgsubr
        </CharString>
        <CharString name="acute.cap.001">
          -20 325 -67 callsubr
          endchar
        </CharString>
        <CharString name="adieresis">
          -25 106 607 -553 460 hstemhm
          476 70 hintmask 01100000
          266 620 rmoveto
          68 hlineto
          hintmask 10100000
          -53 callgsubr
          hintmask 01100000
          169 -93 rmoveto
          67 hlineto
          hintmask 10100000
          -53 callgsubr
          hintmask 01100000
          -259 -723 rmoveto
          hintmask 10100000
          87 83 116 0 hvcurveto
          -4 -21 -14 -86 0 vvcurveto
          73 3 rlineto
          hintmask 01100000
          -62 callgsubr
          76 325 rlineto
          0 -142 25 -63 -169 -83 -215 -156 -92 39 -57 89 vhcurveto
          125 455 rmoveto
          47 70 -14 0 hvcurveto
          -57 -245 rlineto
          0 -99 -131 -63 -56 -18 31 53 124 60 182 116 vhcurveto
          endchar
        </CharString>
        <CharString name="ae">
          224 -97 callgsubr
          endchar
        </CharString>
        <CharString name="aeacute">
          224 610 -21 hstem
          -97 callgsubr
          -270 318 -91 callgsubr
        </CharString>
        <CharString name="agrave">
          -25 -63 callgsubr
          hstem
          89 77 vstem
          217 -10 -107 callgsubr
          -4 296 -66 callsubr
          endchar
        </CharString>
        <CharString name="amacron">
          -25 -63 callgsubr
          120 68 hstem
          89 77 vstem
          217 -10 -107 callgsubr
          -57 194 -64 callgsubr
        </CharString>
        <CharString name="ampersand">
          110 -10 66 304 49 -28 -21 278 64 0 -20 hstemhm
          -171 142 104 78 101 77 178 77 -27 72 hintmask 1100111101000000
          443 702 rmoveto
          -115 -74 -70 -124 -40 9 -25 18 -34 hvcurveto
          -143 -54 -63 -72 -133 vvcurveto
          -102 52 -58 137 95 73 41 75 63 vhcurveto
          88 -113 52 46 -93 118 31 44 39 77 19 66 rlinecurve
          -72 hlineto
          -14 -48 -25 -55 -20 -32 -111 152 rcurveline
          hintmask 1011011110000000
          133 51 64 64 103 vvcurveto
          87 -55 36 -88 vhcurveto
          -168 -646 rmoveto
          -75 -47 28 73 95 38 62 119 46 hvcurveto
          146 -204 rlineto
          -62 -45 -68 -38 -68 hhcurveto
          56 450 rmoveto
          75 35 57 74 44 25 -19 -44 -76 -39 -46 -110 -46 vhcurveto
          -19 28 -10 32 39 vvcurveto
          endchar
        </CharString>
        <CharString name="aogonek">
          -25 -204 67 127 65 -43 -20 453 65 hstemhm
          89 77 99 82 hintmask 10111100
          419 -132 rmoveto
          0 -34 -5 -14 -16 -8 7 13 35 59 60 30 24 vhcurveto
          6 hlineto
          -62 callgsubr
          76 325 rlineto
          0 -142 25 -63 -169 -83 -215 -156 vhcurveto
          hintmask 11011100
          -92 39 -57 89 87 83 116 0 vhcurveto
          -4 -18 -9 -59 -4 -21 rrcurveto
          -36 -29 -69 -68 -52 vvcurveto
          -40 24 -23 46 32 45 9 0 vhcurveto
          -70 640 rmoveto
          47 70 -14 0 hvcurveto
          -57 -245 rlineto
          0 -99 -131 -63 -56 -18 31 53 124 60 182 116 vhcurveto
          endchar
        </CharString>
        <CharString name="approxequal">
          35 85 69 -7 68 55 69 -7 68 hstemhm
          hintmask 10100000
          541 385 rmoveto
          0 -65 -46 -38 vhcurveto
          hintmask 10010000
          -39 callgsubr
          -10 -124 rmoveto
          0 -65 -46 -38 vhcurveto
          hintmask 01100000
          -39 callgsubr
          endchar
        </CharString>
        <CharString name="aring">
          -25 -63 callgsubr
          54 49 96 58 hstem
          89 77 171 45 93 46 vstem
          217 -10 -107 callgsubr
          -5 218 -94 callgsubr
          endchar
        </CharString>
        <CharString name="aringacute">
          -25 -63 callgsubr
          34 49 96 58 42 -21 hstem
          89 77 145 45 93 46 vstem
          345 768 rmoveto
          228 85 -8 73 -228 -93 rlineto
          -120 -843 -107 callgsubr
          -31 198 -94 callgsubr
          endchar
        </CharString>
        <CharString name="asciicircum">
          35 480 319 rmoveto
          80 hlineto
          -191 341 rlineto
          -67 hlineto
          -186 -341 rlineto
          80 hlineto
          140 267 rlineto
          endchar
        </CharString>
        <CharString name="asciitilde">
          35 195 69 -7 68 hstemhm
          hintmask 10000000
          544 310 rmoveto
          0 -64 -46 -38 vhcurveto
          hintmask 01000000
          -45 -98 61 -56 hhcurveto
          -54 -62 -53 0 hvcurveto
          10 -62 rlineto
          0 64 47 41 vhcurveto
          hintmask 10000000
          42 102 -62 56 hhcurveto
          54 58 54 0 hvcurveto
          endchar
        </CharString>
        <CharString name="asterisk">
          -112 511 50 143 -20 hstem
          492 511 rmoveto
          50 -130 vlineto
          41 127 -50 16 -40 -126 -107 78 -30 -42 106 -77 -108 -79 30 -40 107 79 42 -126 48 15 -40 125 rlineto
          endchar
        </CharString>
        <CharString name="at">
          408 -201 66 125 67 598 66 hstem
          105 73 141 75 500 69 vstem
          639 721 -98 callgsubr
        </CharString>
        <CharString name="at.cap">
          385 -109 66 125 67 598 66 hstem
          113 73 141 75 500 69 vstem
          647 813 -98 callgsubr
        </CharString>
        <CharString name="atilde">
          -25 -63 callgsubr
          104 -21 callsubr
          89 77 hintmask 11101000
          217 -10 -107 callgsubr
          233 276 -58 callgsubr
          hintmask 11011000
          -96 callgsubr
          hintmask 11101000
          -84 callsubr
          endchar
        </CharString>
        <CharString name="b">
          -26 -63 callgsubr
          0 -20 228 -20 20 0 hstem
          231 74 143 77 vstem
          392 510 rmoveto
          -78 -74 -76 0 hvcurveto
          65 284 -48 callgsubr
          -162 -703 rlineto
          0 120 -25 82 179 75 228 139 86 -25 67 -108 vhcurveto
          -123 -455 rmoveto
          -44 -70 13 0 hvcurveto
          68 291 rlineto
          0 83 86 64 69 9 -41 -52 -74 -43 -223 -136 vhcurveto
          endchar
        </CharString>
        <CharString name="backslash">
          -99 21 -21 693 -20 hstem
          398 8 rmoveto
          -131 693 -79 -8 132 -693 rlineto
          endchar
        </CharString>
        <CharString name="bar">
          -213 -201 -21 940 -20 hstem
          176 74 vstem
          176 -222 rmoveto
          74 940 -74 hlineto
          endchar
        </CharString>
        <CharString name="braceleft">
          -212 -127 15 callgsubr
          247 41 -41 201 hintmask 11100000
          230 222 -86 callgsubr
        </CharString>
        <CharString name="braceleft.cap">
          -212 -97 15 callgsubr
          254 41 -41 201 hintmask 11100000
          237 252 -86 callgsubr
        </CharString>
        <CharString name="braceright">
          -213 -130 15 callgsubr
          8 201 -41 41 hintmask 11010000
          226 401 -86 callsubr
        </CharString>
        <CharString name="braceright.cap">
          -212 -100 15 callgsubr
          16 201 -41 41 hintmask 11010000
          234 431 -86 callsubr
        </CharString>
        <CharString name="bracketleft">
          -249 -122 16 callgsubr
          228 61 vstem
          228 747 -36 callgsubr
        </CharString>
        <CharString name="bracketleft.cap">
          -249 -92 16 callgsubr
          235 61 vstem
          235 777 -36 callgsubr
        </CharString>
        <CharString name="bracketright">
          -249 -121 16 callgsubr
          132 61 vstem
          193 -121 -36 callsubr
        </CharString>
        <CharString name="bracketright.cap">
          -250 -91 16 callgsubr
          138 61 vstem
          199 -91 -36 callsubr
        </CharString>
        <CharString name="breve">
          -86 593 62 hstem
          237 65 159 65 vstem
          237 731 -43 callsubr
          -90 callgsubr
        </CharString>
        <CharString name="breve.cap">
          -86 796 60 hstem
          286 66 150 66 vstem
          286 923 rmoveto
          -93 callgsubr
          endchar
        </CharString>
        <CharString name="brokenbar">
          -207 -201 -21 940 -20 hstem
          179 74 vstem
          179 718 rmoveto
          -374 74 374 vlineto
          -74 -562 rmoveto
          -378 74 378 vlineto
          endchar
        </CharString>
        <CharString name="bullet">
          -40 127 -21 286 -20 hstem
          175 250 vstem
          175 106 rmoveto
          250 286 -250 hlineto
          endchar
        </CharString>
        <CharString name="c">
          -120 -63 callgsubr
          hstem
          92 77 vstem
          355 510 rmoveto
          -99 callsubr
          endchar
        </CharString>
        <CharString name="cacute">
          -120 -63 callgsubr
          100 -21 hstem
          92 77 vstem
          355 510 rmoveto
          -99 callsubr
          -61 86 -91 callgsubr
        </CharString>
        <CharString name="caron">
          266 608 -42 callsubr
          hstem
          418 18 callsubr
          vstem
          545 587 -19 callsubr
        </CharString>
        <CharString name="caron.cap">
          -86 792 137 hstem
          348 58 vstem
          576 929 -88 callsubr
          endchar
        </CharString>
        <CharString name="ccaron">
          -120 -10 65 -65 70 385 65 98 -42 callsubr
          hstemhm
          92 77 -68 75 89 18 callsubr
          hintmask 0111101110000000
          392 587 -78 callgsubr
          5 -77 rmoveto
          hintmask 1011110110000000
          -99 callsubr
          endchar
        </CharString>
        <CharString name="ccedilla">
          -119 -16 callsubr
          35 65 -50 -20 455 70 -65 65 hstemhm
          92 77 -67 75 35 40 12 62 hintmask 1101010111000000
          355 510 rmoveto
          hintmask 1101101011000000
          -179 -84 -176 -192 -84 40 -53 77 -12 hvcurveto
          -18 -80 -95 callgsubr
          -54 callsubr
          hintmask 1110100111000000
          9 35 rlineto
          62 69 21 0 hvcurveto
          5 59 rlineto
          0 -73 -15 -39 vhcurveto
          hintmask 1101011011000000
          -75 -28 36 65 140 57 149 127 43 65 -12 0 hvcurveto
          19 58 rlineto
          0 -68 19 -57 vhcurveto
          endchar
        </CharString>
        <CharString name="ccircumflex">
          -120 -63 callgsubr
          98 -42 callsubr
          hstem
          92 77 57 76 89 117 vstem
          355 510 rmoveto
          -99 callsubr
          -129 77 10 callgsubr
          -89 callgsubr
        </CharString>
        <CharString name="cdotaccent">
          -120 -63 callgsubr
          hstem
          92 77 vstem
          355 510 rmoveto
          -99 callsubr
          -21 95 -40 callgsubr
        </CharString>
        <CharString name="cedilla">
          266 -16 callsubr
          50 -20 hstem
          386 40 12 62 vstem
          500 -124 rmoveto
          -54 callsubr
          13 50 rlineto
          -40 hlineto
          -21 -92 -95 callgsubr
          endchar
        </CharString>
        <CharString name="cent">
          35 257 63 vstem
          257 -80 rmoveto
          63 hlineto
          28 120 rlineto
          40 1 57 7 0 vvcurveto
          14 65 rlineto
          0 -83 -6 -41 -112 -2 59 82 20 vhcurveto
          92 23 49 53 89 hhcurveto
          36 81 -7 0 hvcurveto
          20 66 rlineto
          0 -52 7 -40 3 vhcurveto
          29 120 rlineto
          -63 hlineto
          -28 -119 -104 -4 -78 -71 -36 -140 rlinecurve
          -26 -103 11 -106 132 -3 rrcurveto
          endchar
        </CharString>
        <CharString name="circumflex">
          266 608 -42 callsubr
          hstem
          384 76 89 117 vstem
          384 587 10 callgsubr
          -89 callgsubr
        </CharString>
        <CharString name="circumflex.cap.001">
          -86 244 793 -93 callsubr
          -41 hlineto
          endchar
        </CharString>
        <CharString name="colon">
          -354 73 76 0 76 hintmask 01000000
          123 330 rmoveto
          -31 callsubr
          -102 -441 10 callgsubr
          26 111 rlineto
          hintmask 10000000
          -76 hlineto
          endchar
        </CharString>
        <CharString name="comma">
          -342 -108 -21 240 -20 hstem
          49 -129 rmoveto
          120 240 rlineto
          -83 hlineto
          -98 -240 rlineto
          endchar
        </CharString>
        <CharString name="commaaccent">
          -364 42 70 vstem
          -45 -38 callsubr
          endchar
        </CharString>
        <CharString name="copyright">
          119 161 44 71 57 201 57 73 43 hstemhm
          159 44 106 60 -60 191 -73 76 139 44 hintmask 1111101010000000
          12 callsubr
          151 157 -57 callgsubr
          -128 -126 -92 103 126 vhcurveto
          297 -94 rmoveto
          0 -41 -7 -30 vhcurveto
          hintmask 1111110110000000
          -48 -12 36 66 66 8 33 52 hvcurveto
          hintmask 1111101010000000
          32 39 -6 0 hvcurveto
          hintmask 1111110110000000
          3 53 rlineto
          0 -34 10 -42 -91 -27 -52 -104 -109 28 -50 88 41 37 12 3 callsubr
        </CharString>
        <CharString name="currency">
          35 507 30 rmoveto
          53 53 -71 70 39 60 0 77 -39 60 rlinecurve
          71 71 -53 53 -70 -71 -60 39 -78 0 -61 -39 rlinecurve
          -70 71 -52 -53 70 -70 -39 -60 0 -78 39 -60 rlinecurve
          -70 -70 52 -53 70 71 61 -40 78 0 60 40 rlinecurve
          -177 73 rmoveto
          -43 43 0 70 43 43 42 42 71 0 43 -42 42 -43 0 -70 -42 -43 -43 -42 -71 0 -42 42 rrcurveto
          endchar
        </CharString>
        <CharString name="d">
          -25 -63 callgsubr
          208 -20 hstem
          89 77 359 75 vstem
          600 718 rmoveto
          -75 hlineto
          -53 -226 rlineto
          -68 callsubr
        </CharString>
        <CharString name="dagger">
          -81 -54 -21 496 77 188 -20 hstem
          283 71 vstem
          126 421 rmoveto
          157 hlineto
          -116 -496 -5 callgsubr
          118 497 159 -1 17 -10 callgsubr
          rlineto
          endchar
        </CharString>
        <CharString name="daggerdbl">
          -44 -54 -21 189 75 233 76 188 -20 hstem
          187 69 vstem
          187 -75 rmoveto
          69 hlineto
          45 189 158 -1 18 76 rlineto
          -158 hlineto
          55 233 158 -1 18 -10 callgsubr
          -17 -77 rlineto
          157 hlineto
          -55 -233 -159 1 -17 -76 rlineto
          159 hlineto
          endchar
        </CharString>
        <CharString name="dcaron">
          26 -63 callgsubr
          -29 -21 232 -20 46 -20 hstemhm
          89 77 359 75 53 68 hintmask 10111111
          721 -25 callsubr
          69 hlineto
          -67 258 rmoveto
          -75 hlineto
          -53 -226 rlineto
          hintmask 11011111
          -68 callsubr
        </CharString>
        <CharString name="dcroat">
          -25 0 658 -569 629 -129 -20 hstemhm
          350 275 -264 239 hintmask 01001000
          600 718 rmoveto
          -75 hlineto
          hintmask 10001000
          -14 -60 rlineto
          -145 hlineto
          hintmask 00110000
          -16 -69 rlineto
          144 hlineto
          -22 -97 rlineto
          0 -75 18 -58 -160 -90 -205 -169 -97 43 -49 83 vhcurveto
          hintmask 01001000
          89 76 99 0 hvcurveto
          hintmask 10001000
          -19 -89 rlineto
          72 hlineto
          hintmask 00110000
          137 589 rlineto
          55 hlineto
          hintmask 10001000
          16 69 rlineto
          -55 hlineto
          hintmask 01001000
          -187 -485 rmoveto
          0 -94 -118 -67 -50 -22 30 52 124 60 184 113 54 66 -15 3 callsubr
        </CharString>
        <CharString name="degree">
          35 420 48 186 48 hstem
          267 50 185 48 vstem
          267 561 rmoveto
          -85 57 -56 85 84 57 56 85 84 -57 57 -84 -85 -57 -57 -84 vhcurveto
          50 hmoveto
          55 36 38 56 55 38 -38 -55 -56 -38 -37 -55 -56 -36 37 56 vhcurveto
          endchar
        </CharString>
        <CharString name="dieresis">
          155 624 89 hstem
          236 68 121 66 vstem
          242 620 rmoveto
          61 0 callsubr
          -25 callgsubr
        </CharString>
        <CharString name="dieresis.cap">
          -138 285 -60 callgsubr
          23 93 rlineto
          -62 hlineto
          endchar
        </CharString>
        <CharString name="divide">
          35 51 -21 251 73 -48 96 hstemhm
          235 206 hintmask 11010000
          178 281 rmoveto
          319 73 -56 hlineto
          hintmask 10110000
          48 -206 vlineto
          hintmask 11010000
          -48 -57 vlineto
          122 -324 rmoveto
          75 101 -75 hlineto
          endchar
        </CharString>
        <CharString name="dollar">
          35 -120 110 222 460 hstemhm
          95 466 -271 315 hintmask 11010000
          605 645 rmoveto
          0 -39 12 -52 8 vhcurveto
          hintmask 11100000
          47 117 rlineto
          -54 hlineto
          -44 -111 rlineto
          1 -12 -12 0 -12 hhcurveto
          -139 -92 -78 -132 -83 45 -32 83 -30 hvcurveto
          -102 -259 rlineto
          -58 6 -57 9 0 vvcurveto
          -12 -58 rlineto
          0 45 -12 57 -7 vhcurveto
          -45 -116 rlineto
          53 hlineto
          44 112 rlineto
          -1 12 13 -1 13 hhcurveto
          143 94 86 143 83 -36 31 -91 33 hvcurveto
          93 237 rlineto
          52 -5 51 -8 0 vvcurveto
          hintmask 11010000
          -145 -378 rmoveto
          -100 -58 -57 -100 vhcurveto
          -16 hlineto
          97 245 rlineto
          59 -23 18 -18 -47 vvcurveto
          -178 256 rmoveto
          92 60 47 94 vhcurveto
          14 hlineto
          -88 -224 rlineto
          -58 23 -22 17 45 vvcurveto
          endchar
        </CharString>
        <CharString name="dotaccent">
          -301 222 605 -40 callgsubr
        </CharString>
        <CharString name="dotaccent.cap">
          -301 191 -21 499 -20 144 90 hstem
          263 63 vstem
          263 793 -30 callsubr
          endchar
        </CharString>
        <CharString name="dotlessi">
          -318 21 -21 500 -20 hstem
          66 74 vstem
          66 hmoveto
          14 callgsubr
        </CharString>
        <CharString name="dotlessj">
          -318 -34 callgsubr
          endchar
        </CharString>
        <CharString name="e">
          -65 callgsubr
          hstem
          91 75 191 3 74 74 vstem
          262 56 -106 callsubr
          endchar
        </CharString>
        <CharString name="eacute">
          -65 callgsubr
          100 -21 hstem
          91 75 191 3 74 74 vstem
          262 56 -106 callsubr
          58 309 -91 callgsubr
        </CharString>
        <CharString name="ebreve">
          -65 callgsubr
          83 62 hstemhm
          91 75 104 65 22 3 74 74 -14 65 hintmask 1111111100000000
          262 56 -106 callsubr
          28 444 -43 callsubr
          hintmask 1111111010000000
          -90 callgsubr
        </CharString>
        <CharString name="ecaron">
          -65 callgsubr
          98 -42 callsubr
          hstemhm
          91 75 108 120 -37 3 41 158 -125 74 hintmask 1111110101000000
          262 56 -106 callsubr
          159 300 rmoveto
          158 151 -40 callsubr
          -90 -89 -51 89 rlineto
          hintmask 1111111010000000
          -69 hlineto
          85 -151 rlineto
          endchar
        </CharString>
        <CharString name="ecircumflex">
          -63 56 531 -199 285 -163 228 hstemhm
          91 423 -212 73 -15 68 hintmask 10001000
          220 587 rmoveto
          82 hlineto
          hintmask 01001000
          89 86 rlineto
          hintmask 10010000
          -4 callsubr
          75 hlineto
          hintmask 00100100
          -86 -7 callgsubr
          hintmask 00101000
          -53 hlineto
          hintmask 10001000
          -113 -682 rmoveto
          -74 callsubr
          hvcurveto
          51 hlineto
          hintmask 01001000
          -59 callsubr
          hvcurveto
          hintmask 00100100
          -20 callgsubr
          vhcurveto
          hintmask 10010000
          -187 -82 -196 -172 -102 55 -50 96 90 89 29 0 hvcurveto
          6 59 rlineto
          0 -91 -22 -74 vhcurveto
          -75 231 rmoveto
          96 28 51 64 91 hhcurveto
          49 28 -16 -44 -78 -61 -22 -131 hvcurveto
          endchar
        </CharString>
        <CharString name="edieresis">
          -63 228 485 -325 232 0 93 hstemhm
          321 211 -172 83 65 2 hintmask 00110000
          253 22 callgsubr
          hintmask 00101100
          169 -93 rmoveto
          67 hlineto
          hintmask 00110000
          -53 callgsubr
          hintmask 00101100
          -201 -657 rmoveto
          -57 -39 31 60 hvcurveto
          hintmask 10010000
          23 4 33 7 25 vhcurveto
          51 hlineto
          hintmask 01001100
          -59 callsubr
          -20 callgsubr
          -187 -82 -196 -172 -102 55 -50 96 90 89 29 0 hvcurveto
          6 59 rlineto
          0 -91 -22 -74 vhcurveto
          -75 231 rmoveto
          96 28 51 64 91 hhcurveto
          49 28 -16 -44 -78 -61 -22 -131 hvcurveto
          endchar
        </CharString>
        <CharString name="edotaccent">
          -65 callgsubr
          hstem
          91 75 191 3 74 74 vstem
          262 56 -106 callsubr
          96 318 -40 callgsubr
        </CharString>
        <CharString name="egrave">
          -65 callgsubr
          hstem
          91 75 191 3 74 74 vstem
          262 56 -106 callsubr
          16 454 -66 callsubr
          endchar
        </CharString>
        <CharString name="eight">
          35 -11 67 252 65 231 67 0 -20 hstemhm
          66 83 9 78 255 80 -15 83 hintmask 11011110
          440 671 rmoveto
          -199 -83 -113 -101 -48 12 -30 60 -34 hvcurveto
          -80 -35 -84 -64 -114 vvcurveto
          -102 80 -41 124 233 68 150 80 49 -14 46 -74 31 vhcurveto
          hintmask 11101101
          101 33 55 75 85 vvcurveto
          79 -61 54 -138 vhcurveto
          -153 -615 rmoveto
          -93 -45 31 58 96 78 47 70 20 hvcurveto
          100 hlineto
          hintmask 11101110
          62 -19 32 -18 -61 vvcurveto
          -58 -58 -96 -146 vhcurveto
          136 548 rmoveto
          hintmask 11101101
          94 39 -31 -60 -78 -91 -47 -52 -15 hvcurveto
          -100 hlineto
          -59 23 -18 27 40 vvcurveto
          67 52 74 135 vhcurveto
          endchar
        </CharString>
        <CharString name="eight.dnom">
          -110 17 callgsubr
          17 68 106 66 vstem
          196 222 -104 callgsubr
        </CharString>
        <CharString name="eight.numr">
          368 17 callgsubr
          125 68 106 66 vstem
          304 700 -104 callgsubr
        </CharString>
        <CharString name="eight.pnum">
          -36 -10 70 168 66 149 66 hstem
          61 84 263 80 vstem
          366 509 rmoveto
          -161 -73 -79 -80 -29 11 -31 52 -26 hvcurveto
          -70 -27 -64 -47 -95 vvcurveto
          -62 61 -43 115 188 63 83 98 37 -20 33 -54 23 vhcurveto
          72 20 52 45 78 vvcurveto
          58 -56 44 -116 vhcurveto
          -112 -449 rmoveto
          -76 -33 20 34 65 46 37 59 12 hvcurveto
          89 hlineto
          46 -12 23 -16 -27 vvcurveto
          -66 -40 -47 -114 vhcurveto
          92 383 rmoveto
          79 31 -19 -33 -57 -42 -23 -59 -17 hvcurveto
          -88 hlineto
          -46 15 -9 16 24 vvcurveto
          28 12 66 122 vhcurveto
          endchar
        </CharString>
        <CharString name="eightinferior">
          -110 17 callgsubr
          16 68 106 66 vstem
          195 222 -104 callgsubr
        </CharString>
        <CharString name="eightsuperior">
          468 17 callgsubr
          149 68 106 66 vstem
          328 800 -104 callgsubr
        </CharString>
        <CharString name="ellipsis">
          115 73 76 160 76 159 76 vstem
          47 hmoveto
          -31 callsubr
          210 -111 rmoveto
          -31 callsubr
          209 -111 rmoveto
          -31 callsubr
          endchar
        </CharString>
        <CharString name="emacron">
          -65 callgsubr
          120 68 hstem
          91 75 191 3 74 74 vstem
          262 56 -106 callsubr
          13 352 -64 callgsubr
        </CharString>
        <CharString name="emdash">
          569 21 callgsubr
          1000 66 vlineto
          endchar
        </CharString>
        <CharString name="emdash.cap">
          569 22 callsubr
          1000 66 vlineto
          endchar
        </CharString>
        <CharString name="endash">
          69 21 callgsubr
          500 66 vlineto
          endchar
        </CharString>
        <CharString name="endash.cap">
          69 22 callsubr
          500 66 vlineto
          endchar
        </CharString>
        <CharString name="eng">
          -33 135 hmoveto
          86 368 rlineto
          0 81 70 64 50 21 -19 -43 1 vhcurveto
          1 -29 -7 -41 -11 -47 -58 -246 rcurveline
          -24 -98 -24 -26 -108 -58 16 -66 rcurveline
          137 66 41 46 29 123 61 259 rcurveline
          11 49 12 55 -4 42 rrcurveto
          75 -4 -34 30 -80 hhcurveto
          -61 -63 -47 -28 -32 hvcurveto
          17 65 rlineto
          -71 hlineto
          -117 -500 rlineto
          endchar
        </CharString>
        <CharString name="eogonek">
          -63 -184 67 107 66 -24 -20 216 59 160 63 hstemhm
          91 75 78 82 31 3 74 74 hintmask 1011111110000000
          398 -112 rmoveto
          0 -34 -5 -14 -16 -8 7 13 32 49 53 31 26 vhcurveto
          8 2 7 3 0 vvcurveto
          6 59 rlineto
          hintmask 1101111110000000
          0 -91 -22 -74 -74 callsubr
          vhcurveto
          51 hlineto
          -59 callsubr
          -20 callgsubr
          -187 -82 -196 -172 -102 55 -50 96 25 23 2 3 23 hvcurveto
          -34 -33 -35 -45 -38 vvcurveto
          -40 24 -23 46 32 45 9 0 vhcurveto
          -204 462 rmoveto
          96 28 51 64 91 hhcurveto
          49 28 -16 -44 -78 -61 -22 -131 hvcurveto
          endchar
        </CharString>
        <CharString name="equal">
          35 124 69 116 69 hstem
          122 432 vstem
          122 309 rmoveto
          432 69 -432 hlineto
          -254 vmoveto
          432 69 -432 hlineto
          endchar
        </CharString>
        <CharString name="eth">
          -8 -9 0 440 0 hstem
          92 74 319 65 vstem
          393 594 rmoveto
          65 -41 43 -61 -16 -96 rrcurveto
          0 -76 35 -71 -132 -111 -103 -159 -13 vhcurveto
          -92 -13 48 -86 131 hhcurveto
          151 92 109 257 62 hvcurveto
          29 124 -29 96 -85 65 82 53 rcurveline
          -27 46 -105 -68 -40 21 -48 15 -55 12 rlinecurve
          -29 -67 31 -9 31 -11 30 -12 rlinecurve
          -87 -56 28 -46 rlineto
          48 -160 rmoveto
          66 73 -34 -2 4 hvcurveto
          -157 -40 -63 -102 -102 hhcurveto
          -83 -28 44 63 7 hvcurveto
          107 6 70 81 90 hhcurveto
          endchar
        </CharString>
        <CharString name="exclam">
          -336 0 111 589 -20 hstem
          59 76 vstem
          112 230 rmoveto
          67 hlineto
          116 470 -33 callgsubr
          -159 -700 10 callgsubr
          25 -16 callgsubr
          endchar
        </CharString>
        <CharString name="exclamdown">
          -347 -200 -20 609 111 hstem
          164 76 vstem
          187 270 -26 callgsubr
        </CharString>
        <CharString name="exclamdown.cap">
          -336 -8 -20 609 111 hstem
          214 76 vstem
          237 462 -26 callgsubr
        </CharString>
        <CharString name="f">
          -216 -201 -21 657 65 163 65 hstem
          210 74 vstem
          260 435 rmoveto
          132 hlineto
          16 65 rlineto
          -134 hlineto
          10 42 rlineto
          81 21 20 40 53 hhcurveto
          32 40 -7 0 hvcurveto
          14 58 rlineto
          0 -46 14 -38 -96 -43 -51 -134 -31 vhcurveto
          -11 -43 rlineto
          -55 hlineto
          -16 -66 rlineto
          57 hlineto
          -152 -656 rlineto
          65 hlineto
          61 222 rlineto
          endchar
        </CharString>
        <CharString name="five">
          35 -9 67 289 67 179 67 hstem
          253 48 177 78 vstem
          253 660 rmoveto
          -105 -343 60 -12 rlineto
          0 85 42 70 77 38 -31 -60 -109 -88 -89 -111 -78 -112 28 0 vhcurveto
          -19 -61 rlineto
          0 111 -34 101 154 120 120 157 102 -65 44 -106 -67 -91 -43 0 vhcurveto
          74 222 rlineto
          314 hlineto
          15 67 rlineto
          endchar
        </CharString>
        <CharString name="five.dnom">
          -108 -1 callsubr
          43 94 39 68 vstem
          97 212 -99 callgsubr
        </CharString>
        <CharString name="five.numr">
          370 -1 callsubr
          159 94 39 68 vstem
          213 690 -99 callgsubr
        </CharString>
        <CharString name="five.pnum">
          -65 -9 68 192 65 -44 -21 hstem
          100 88 200 80 vstem
          186 501 rmoveto
          -86 -271 54 -13 rlineto
          0 85 34 54 74 21 -25 -41 -71 -56 -55 -87 -67 -114 24 0 vhcurveto
          -24 -68 rlineto
          0 119 -24 75 152 82 87 119 82 -58 37 -95 -54 -73 -28 0 vhcurveto
          49 141 rlineto
          266 hlineto
          18 72 rlineto
          endchar
        </CharString>
        <CharString name="fiveinferior">
          -108 -1 callsubr
          43 94 39 68 vstem
          97 212 -99 callgsubr
        </CharString>
        <CharString name="fivesuperior">
          470 -1 callsubr
          183 94 39 68 vstem
          237 790 -99 callgsubr
        </CharString>
        <CharString name="florin">
          35 -243 69 533 72 184 71 -9 -20 hstemhm
          329 70 hintmask 11101000
          374 359 rmoveto
          156 hlineto
          17 72 rlineto
          -157 hlineto
          9 36 rlineto
          99 23 23 49 60 hhcurveto
          28 69 -4 0 hvcurveto
          hintmask 11011000
          16 66 rlineto
          hintmask 11101000
          3 -13 -58 6 -40 hhcurveto
          -91 -46 -48 -156 -41 hvcurveto
          -12 -51 rlineto
          -104 hlineto
          -16 -72 rlineto
          103 hlineto
          -101 -422 rlineto
          -83 -20 -30 -28 -44 hhcurveto
          -26 -38 3 0 hvcurveto
          -15 -64 rlineto
          0 39 -8 32 88 55 42 134 32 vhcurveto
          endchar
        </CharString>
        <CharString name="four">
          35 124 65 hstem
          91 82 186 76 vstem
          359 -2 10 callgsubr
          29 126 rlineto
          79 hlineto
          16 65 rlineto
          -80 hlineto
          50 216 -4 callgsubr
          -50 -216 rlineto
          -230 hlineto
          317 471 rlineto
          -85 hlineto
          -314 -479 -14 -57 rlineto
          311 hlineto
          endchar
        </CharString>
        <CharString name="four.dnom">
          -79 -22 callsubr
          hstem
          149 63 vstem
          149 -100 -100 callgsubr
        </CharString>
        <CharString name="four.numr">
          399 -22 callsubr
          hstem
          252 63 vstem
          252 378 -100 callgsubr
        </CharString>
        <CharString name="four.pnum">
          -65 21 -21 100 68 332 -20 hstem
          297 76 vstem
          297 hmoveto
          76 hlineto
          25 100 rlineto
          61 hlineto
          17 68 rlineto
          -61 hlineto
          31 126 -4 callgsubr
          -31 -126 rlineto
          -183 hlineto
          244 332 rlineto
          -89 hlineto
          -248 -340 -15 -60 rlineto
          273 hlineto
          endchar
        </CharString>
        <CharString name="fourinferior">
          -79 -22 callsubr
          hstem
          148 63 vstem
          148 -100 -100 callgsubr
        </CharString>
        <CharString name="foursuperior">
          499 -22 callsubr
          hstem
          275 63 vstem
          275 478 -100 callgsubr
        </CharString>
        <CharString name="fraction">
          -504 -4 -21 717 -20 hstem
          -154 70 357 70 vstem
          -84 -25 -59 callgsubr
          endchar
        </CharString>
        <CharString name="g">
          -32 callgsubr
          hstem
          18 71 285 73 vstem
          -105 callsubr
          endchar
        </CharString>
        <CharString name="gbreve">
          -32 callgsubr
          83 62 hstem
          18 71 177 65 43 73 43 65 vstem
          -105 callsubr
          -8 499 -43 callsubr
          -90 callgsubr
        </CharString>
        <CharString name="gcircumflex">
          -32 callgsubr
          98 -42 callsubr
          hstemhm
          18 71 122 76 87 73 -71 117 hintmask 1111111100000000
          -105 callsubr
          -63 355 10 callgsubr
          hintmask 1111111010000000
          -89 callgsubr
        </CharString>
        <CharString name="gcommaaccent">
          -57 -171 121 -54 898 -771 413 hstemhm
          120 77 -47 233 hintmask 01001000
          409 794 rmoveto
          -96 -210 rlineto
          70 hlineto
          87 210 rlineto
          hintmask 10110000
          -273 -1029 rmoveto
          156 94 86 99 77 -50 29 -101 13 hvcurveto
          -69 9 -24 6 23 vvcurveto
          26 31 40 0 vhcurveto
          0 19 -3 14 140 71 108 89 32 -8 22 -9 15 vhcurveto
          89 hlineto
          15 64 -148 -6 rlineto
          0 -44 16 -52 -129 -72 -105 -96 -61 24 -38 45 -21 vhcurveto
          0 -55 -53 -44 vvcurveto
          hintmask 01001000
          -20 6 -13 10 -10 vhcurveto
          -58 -30 -74 -47 -76 vvcurveto
          hintmask 10110000
          -84 69 -47 110 vhcurveto
          79 242 rmoveto
          69 -9 29 -12 -42 vvcurveto
          -74 -84 -41 -90 -76 -35 36 47 45 55 43 45 23 vhcurveto
          14 -5 28 -6 45 -5 rrcurveto
          -2 225 rmoveto
          -61 -22 33 47 59 44 76 82 65 25 -29 -55 -51 -41 -80 -92 hvcurveto
          endchar
        </CharString>
        <CharString name="gdotaccent">
          -32 callgsubr
          hstem
          18 71 285 73 vstem
          -105 callsubr
          50 373 -40 callgsubr
        </CharString>
        <CharString name="germandbls">
          14 -10 65 608 65 hstemhm
          65 71 67 126 143 76 -49 76 hintmask 11110100
          136 hmoveto
          122 520 rlineto
          103 24 37 40 86 hhcurveto
          hintmask 11111000
          68 26 -22 -42 -48 -21 -25 -56 -29 hvcurveto
          -73 -37 -28 -26 -59 vvcurveto
          -40 17 -24 58 -35 vhcurveto
          63 -38 13 -14 -38 vvcurveto
          -77 -52 -54 -95 -42 -66 13 0 vhcurveto
          -14 -59 rlineto
          0 69 -19 57 vhcurveto
          hintmask 11110100
          139 80 80 124 68 -25 18 -65 40 hvcurveto
          -52 32 -10 11 25 vvcurveto
          26 23 14 60 28 vhcurveto
          62 30 34 44 78 vvcurveto
          76 -53 44 -111 -123 -63 -50 -149 -35 vhcurveto
          -125 -529 rlineto
          endchar
        </CharString>
        <CharString name="grave">
          -7 316 12 callgsubr
          endchar
        </CharString>
        <CharString name="grave.cap">
          -35 361 -70 callsubr
          endchar
        </CharString>
        <CharString name="greater">
          35 34 -21 474 -20 hstem
          490 252 rmoveto
          -339 -160 rlineto
          -79 vlineto
          417 205 rlineto
          66 vlineto
          -417 203 rlineto
          -78 vlineto
          endchar
        </CharString>
        <CharString name="greaterequal">
          35 22 68 44 76 212 75 hstemhm
          127 422 -87 87 hintmask 11110000
          hintmask 11101000
          462 320 rmoveto
          -335 -110 rlineto
          -76 vlineto
          422 150 rlineto
          68 vlineto
          -422 145 rlineto
          -75 vlineto
          422 -332 rmoveto
          -422 -68 422 hlineto
          endchar
        </CharString>
        <CharString name="guillemotleft">
          -79 67 0 13 0 0 69 89 -21 115 77 -67 0 hstemhm
          88 62 -56 60 130 60 hintmask 1011101010000000
          497 409 rmoveto
          -33 callsubr
          131 87 rlineto
          -168 77 rmoveto
          hintmask 1011010110000000
          -33 callsubr
          rlineto
          hintmask 1101101010000000
          131 87 rlineto
          endchar
        </CharString>
        <CharString name="guillemotright">
          -45 5 callgsubr
          163 60 hintmask 10011100
          286 80 -28 callsubr
          -245 -77 -28 callsubr
          endchar
        </CharString>
        <CharString name="guilsinglleft">
          -269 80 0 0 69 183 77 hstem
          94 60 vstem
          307 409 rmoveto
          -33 callsubr
          131 87 rlineto
          endchar
        </CharString>
        <CharString name="guilsinglright">
          -268 5 callgsubr
          hintmask 10011000
          63 80 rmoveto
          213 142 14 38 rlineto
          hintmask 01101000
          -142 149 -20 -69 88 -96 rlineto
          hintmask 10011000
          -131 -87 rlineto
          endchar
        </CharString>
        <CharString name="h">
          -26 21 -21 444 66 208 -6 callsubr
          141 hmoveto
          -85 callgsubr
          71 306 23 callgsubr
        </CharString>
        <CharString name="hbar">
          -26 21 -21 444 66 69 65 74 -6 callsubr
          145 579 rmoveto
          55 hlineto
          -134 -579 rlineto
          75 hlineto
          -85 callgsubr
          38 167 rlineto
          145 hlineto
          16 65 rlineto
          -146 hlineto
          18 74 -40 callsubr
          -17 -74 rlineto
          -55 hlineto
          endchar
        </CharString>
        <CharString name="hcircumflex">
          -26 21 -21 444 66 208 -6 callsubr
          141 hmoveto
          -85 callgsubr
          71 306 -17 callsubr
          224 763 -93 callsubr
          -41 hlineto
          endchar
        </CharString>
        <CharString name="hungarumlaut">
          141 502 582 -39 callsubr
        </CharString>
        <CharString name="hungarumlaut.cap">
          141 546 755 -22 callgsubr
          -35 callgsubr
          endchar
        </CharString>
        <CharString name="hyphen">
          -188 233 69 hstem
          115 247 vstem
          98 233 7 callsubr
        </CharString>
        <CharString name="hyphen.cap">
          -189 263 69 hstem
          121 247 vstem
          104 263 7 callsubr
        </CharString>
        <CharString name="i">
          -43 callgsubr
          124 90 hstem
          66 hmoveto
          -71 callgsubr
          23 104 10 callgsubr
          21 90 -40 callsubr
          endchar
        </CharString>
        <CharString name="iacute">
          -43 callgsubr
          130 -21 hstem
          66 74 vstem
          66 hmoveto
          -71 callgsubr
          13 96 -91 callgsubr
        </CharString>
        <CharString name="ibreve">
          -43 callgsubr
          113 62 hstemhm
          66 74 -18 65 159 65 hintmask 11110100
          66 hmoveto
          -71 callgsubr
          hintmask 11101100
          -59 231 -43 callsubr
          -90 callgsubr
        </CharString>
        <CharString name="icircumflex">
          -319 608 -21 86 -20 hstem
          84 82 vstem
          84 587 rmoveto
          82 hlineto
          -28 callgsubr
          76 -37 callsubr
          -53 hlineto
          -173 -738 8 callgsubr
        </CharString>
        <CharString name="idieresis">
          -319 641 -21 93 -20 hstem
          103 69 vstem
          103 620 rmoveto
          69 -29 callsubr
          168 -93 rmoveto
          67 -29 callsubr
          -247 -713 8 callgsubr
        </CharString>
        <CharString name="igrave">
          -43 callgsubr
          hstem
          66 74 vstem
          66 hmoveto
          -71 callgsubr
          -69 241 -66 callsubr
          endchar
        </CharString>
        <CharString name="imacron">
          -43 callgsubr
          150 68 hstem
          66 74 vstem
          66 hmoveto
          -71 callgsubr
          -76 139 -64 callgsubr
        </CharString>
        <CharString name="infinity">
          35 121 67 208 67 hstem
          97 72 356 72 vstem
          222 121 rmoveto
          63 31 24 80 31 hvcurveto
          -68 29 35 -36 61 hhcurveto
          84 41 62 109 109 -41 62 -82 -63 -35 -37 -69 -29 hvcurveto
          69 -29 -36 37 -62 hhcurveto
          -82 -41 -62 -109 -109 41 -62 84 hvcurveto
          98 171 rmoveto
          -72 -30 -9 -32 -52 hhcurveto
          -44 -16 44 60 66 15 38 45 52 16 -53 -51 23 hvcurveto
          54 hmoveto
          51 23 16 53 52 hhcurveto
          45 15 -38 -66 -66 -16 -38 -44 -52 -16 53 51 -23 hvcurveto
          endchar
        </CharString>
        <CharString name="integral">
          35 -187 68 831 68 hstem
          309 76 vstem
          385 -6 rmoveto
          581 vlineto
          104 25 33 50 37 37 -5 0 vhcurveto
          3 64 rlineto
          0 -50 9 -42 -92 -44 -49 -155 vhcurveto
          -581 vlineto
          -86 -20 -28 -55 -31 -39 4 0 vhcurveto
          -2 -64 rlineto
          0 51 -8 37 87 48 43 138 vhcurveto
          endchar
        </CharString>
        <CharString name="iogonek">
          -318 1 callgsubr
          29 -21 500 -20 124 90 hstemhm
          -36 82 hintmask 11011100
          119 -132 rmoveto
          0 -35 -5 -14 -16 -8 7 13 vhcurveto
          hintmask 10111100
          36 63 58 32 23 vhcurveto
          116 500 -40 callsubr
          -115 -494 rlineto
          -36 -30 -67 -66 -51 vvcurveto
          -40 24 -23 47 32 44 9 0 vhcurveto
          94 799 10 callgsubr
          21 90 -4 callgsubr
          endchar
        </CharString>
        <CharString name="itilde">
          -43 callgsubr
          134 -21 callsubr
          66 74 hintmask 11101000
          66 hmoveto
          -71 callgsubr
          212 221 -58 callgsubr
          hintmask 11011000
          -96 callgsubr
          hintmask 11101000
          -84 callsubr
          endchar
        </CharString>
        <CharString name="j">
          -319 -235 60 -39 -21 837 90 hstem
          66 74 41 75 vstem
          -34 callgsubr
          24 102 10 callgsubr
          20 90 -40 callsubr
          endchar
        </CharString>
        <CharString name="jcircumflex">
          -43 callgsubr
          hstemhm
          -87 153 -129 319 hintmask 11100000
          66 hmoveto
          -24 -102 -10 -12 -119 -61 rrcurveto
          hintmask 11010000
          24 -60 155 71 14 16 34 148 rlinecurve
          116 500 -40 callsubr
          hintmask 11100000
          -92 87 10 callgsubr
          -89 callgsubr
        </CharString>
        <CharString name="k">
          -80 21 -21 239 64 197 -20 hstem
          66 75 54 0 151 79 vstem
          141 hmoveto
          -56 callgsubr
        </CharString>
        <CharString name="kcommaaccent">
          -80 21 -21 239 64 197 -20 hstemhm
          66 75 37 70 -53 0 151 79 hintmask 11111010
          91 -38 callsubr
          -37 73 rmoveto
          hintmask 11110110
          -56 callgsubr
        </CharString>
        <CharString name="l">
          -23 callsubr
          endchar
        </CharString>
        <CharString name="lacute">
          -23 callsubr
          13 67 -89 callsubr
          endchar
        </CharString>
        <CharString name="lcaron">
          -263 21 -21 481 -21 232 -20 46 -20 hstem
          70 75 219 68 vstem
          432 -25 callsubr
          68 hlineto
          -307 -460 8 callsubr
        </CharString>
        <CharString name="lcommaaccent">
          -310 21 -21 718 -20 hstemhm
          57 70 -57 75 hintmask 11100000
          57 -73 -74 callgsubr
          hintmask 11010000
          100 283 8 callsubr
        </CharString>
        <CharString name="less">
          35 34 -21 474 -20 hstem
          523 409 rmoveto
          78 vlineto
          -417 -203 rlineto
          -66 vlineto
          417 -205 rlineto
          79 vlineto
          -339 160 rlineto
          endchar
        </CharString>
        <CharString name="lessequal">
          35 22 68 44 76 212 75 hstemhm
          113 87 -87 422 hintmask 11101000
          535 422 rmoveto
          75 vlineto
          -422 -145 rlineto
          -68 vlineto
          422 -150 rlineto
          76 vlineto
          hintmask 11110000
          -335 110 rlineto
          hintmask 11101000
          -87 -298 rmoveto
          422 68 -422 hlineto
          endchar
        </CharString>
        <CharString name="logicalnot">
          35 138 -21 157 68 hstem
          481 70 vstem
          123 342 rmoveto
          -68 358 -157 70 225 vlineto
          endchar
        </CharString>
        <CharString name="lozenge">
          35 239 25 132 25 hstem
          503 329 rmoveto
          -99 -65 rlineto
          9 hlineto
          168 65 -168 67 rlineto
          -10 hlineto
          -274 -67 rmoveto
          168 -65 rlineto
          8 hlineto
          -98 65 99 67 rlineto
          -9 hlineto
          69 -157 rmoveto
          38 25 rlineto
          -99 hlineto
          38 -25 rlineto
          -37 157 rmoveto
          97 hlineto
          -37 25 rlineto
          -23 hlineto
          endchar
        </CharString>
        <CharString name="lslash">
          -255 21 -21 477 -21 262 -20 hstemhm
          68 266 -239 75 hintmask 11101000
          95 hmoveto
          75 hlineto
          76 332 112 70 rlineto
          hintmask 11110000
          -24 54 -69 -43 70 305 -48 callgsubr
          -83 -359 -110 -68 26 -53 65 40 rlineto
          endchar
        </CharString>
        <CharString name="m">
          250 0 -20 485 -21 hstem
          66 74 279 75 222 76 vstem
          436 hmoveto
          58 252 rlineto
          14 55 3 47 0 vvcurveto
          0 77 90 62 44 22 -28 -48 -34 -11 -53 -8 -32 vhcurveto
          -58 -249 rlineto
          75 hlineto
          58 252 rlineto
          8 36 12 54 42 vvcurveto
          75 -38 51 -79 -84 -83 -89 0 0 -10 89 -99 -88 -75 -97 0 vhcurveto
          18 87 rlineto
          -73 hlineto
          -115 -500 rlineto
          74 hlineto
          77 332 rlineto
          0 87 112 66 46 22 -28 -47 -32 -11 -56 -8 -32 vhcurveto
          -58 -249 rlineto
          endchar
        </CharString>
        <CharString name="macron">
          -86 630 68 hstem
          229 639 -64 callgsubr
        </CharString>
        <CharString name="macron.cap">
          -86 263 823 -32 callsubr
          endchar
        </CharString>
        <CharString name="minus">
          35 217 68 hstem
          124 427 vstem
          124 217 rmoveto
          427 68 -427 hlineto
          endchar
        </CharString>
        <CharString name="mu">
          35 -201 -21 222 56 -45 -21 288 -20 242 -20 hstemhm
          43 74 14 76 185 73 hintmask 10111111
          43 -222 rmoveto
          74 hlineto
          55 236 rlineto
          -15 19 25 -9 33 hhcurveto
          85 76 97 0 hvcurveto
          hintmask 11011111
          -80 callgsubr
          -74 hlineto
          4 callgsubr
          19 3 26 5 24 vhcurveto
          18 78 rlineto
          -1 hlineto
          52 222 -48 callgsubr
          -52 -222 rlineto
          endchar
        </CharString>
        <CharString name="multiply">
          35 63 -21 417 -20 hstem
          177 459 rmoveto
          -48 -48 162 -160 -163 -161 49 -48 160 162 161 -162 48 48 -162 161 162 161 -48 48 -161 -163 rlineto
          endchar
        </CharString>
        <CharString name="n">
          -29 callgsubr
          hstemhm
          66 74 222 74 hintmask 11011000
          -81 callgsubr
          hintmask 10111000
          -49 callsubr
          endchar
        </CharString>
        <CharString name="nacute">
          -29 callgsubr
          100 -21 hstemhm
          66 74 222 74 hintmask 11011100
          66 hmoveto
          115 500 -18 callsubr
          -18 -87 rlineto
          hintmask 10111100
          -61 callgsubr
          160 596 -91 callgsubr
        </CharString>
        <CharString name="ncaron">
          -29 callgsubr
          98 -42 callsubr
          hstemhm
          66 74 136 120 -34 74 -33 158 hintmask 1101110100000000
          -81 callgsubr
          hintmask 1011110100000000
          -49 callsubr
          337 587 rmoveto
          158 151 -40 callsubr
          -90 -89 -51 89 rlineto
          hintmask 1101111010000000
          -69 hlineto
          85 -151 rlineto
          endchar
        </CharString>
        <CharString name="ncommaaccent">
          -29 callgsubr
          hstemhm
          66 74 72 70 80 74 hintmask 11011100
          -81 callgsubr
          hintmask 10111100
          -49 callsubr
          59 -38 callsubr
          endchar
        </CharString>
        <CharString name="nine">
          35 -10 71 188 69 303 -21 hstem
          147 77 270 91 vstem
          78 11 rmoveto
          0 84 -21 74 169 142 108 264 38 vhcurveto
          194 33 -48 115 -143 hhcurveto
          -156 -103 -107 -123 -21 hvcurveto
          -132 -20 61 -60 121 hhcurveto
          66 119 36 0 hvcurveto
          -152 -39 -88 -72 -113 hhcurveto
          -78 -72 17 0 hvcurveto
          229 240 rmoveto
          -87 -39 37 90 17 hvcurveto
          97 16 80 58 90 hhcurveto
          110 26 -99 -151 -34 hvcurveto
          0 -114 -32 -65 vhcurveto
          endchar
        </CharString>
        <CharString name="nine.dnom">
          -110 2 callgsubr
          52 65 90 60 vstem
          12 -98 -101 callgsubr
        </CharString>
        <CharString name="nine.numr">
          368 2 callgsubr
          164 65 90 60 vstem
          124 380 -101 callgsubr
        </CharString>
        <CharString name="nine.pnum">
          -53 -10 68 132 63 195 62 hstem
          106 75 230 93 vstem
          55 11 rmoveto
          0 88 -21 68 195 98 170 198 89 -44 63 -109 -184 -61 -117 -90 -64 32 -49 118 55 61 20 16 39 vhcurveto
          -110 -25 -72 -58 -94 hhcurveto
          -70 -73 14 0 hvcurveto
          201 181 rmoveto
          -81 -16 30 30 33 15 102 137 79 19 -45 -52 -20 -2 -26 -4 -17 hvcurveto
          0 -81 -35 -66 vhcurveto
          endchar
        </CharString>
        <CharString name="nineinferior">
          -110 2 callgsubr
          51 65 90 60 vstem
          11 -98 -101 callgsubr
        </CharString>
        <CharString name="ninesuperior">
          468 2 callgsubr
          185 65 90 60 vstem
          145 480 -101 callgsubr
        </CharString>
        <CharString name="notequal">
          35 -4 537 -224 69 hstemhm
          417 61 hintmask 01100000
          121 309 rmoveto
          198 hlineto
          -50 -116 rlineto
          -148 -69 118 hlineto
          hintmask 10100000
          -56 -128 60 -24 66 152 rlineto
          244 69 -214 hlineto
          hintmask 01100000
          51 116 rlineto
          163 69 -133 hlineto
          58 131 rlineto
          hintmask 10100000
          -61 24 rlineto
          hintmask 01100000
          -68 -155 rlineto
          -228 hlineto
          endchar
        </CharString>
        <CharString name="ntilde">
          -29 callgsubr
          104 -21 callsubr
          66 74 222 74 hintmask 11010110
          66 hmoveto
          115 500 -18 callsubr
          -18 -87 rlineto
          hintmask 10110110
          -61 callgsubr
          413 721 -58 callgsubr
          hintmask 11001110
          -96 callgsubr
          hintmask 11010110
          -84 callsubr
          endchar
        </CharString>
        <CharString name="numbersign">
          35 139 110 231 110 vstem
          574 180 rmoveto
          16 64 rlineto
          -110 hlineto
          44 178 rlineto
          110 hlineto
          16 64 rlineto
          -110 hlineto
          45 180 rlineto
          -68 hlineto
          -45 -180 rlineto
          -155 hlineto
          46 180 rlineto
          -68 hlineto
          -46 -180 10 callsubr
          -178 10 callsubr
          -180 rlineto
          68 hlineto
          44 180 rlineto
          155 hlineto
          -44 -180 rlineto
          68 hlineto
          44 180 rlineto
          -52 64 rmoveto
          -155 hlineto
          44 178 rlineto
          155 hlineto
          endchar
        </CharString>
        <CharString name="o">
          -46 callgsubr
          hstem
          91 171 179 75 vstem
          343 510 rmoveto
          -106 callgsubr
          endchar
        </CharString>
        <CharString name="oacute">
          -46 callgsubr
          100 -21 hstem
          91 171 179 75 vstem
          343 510 rmoveto
          -106 callgsubr
          40 541 -91 callgsubr
        </CharString>
        <CharString name="obreve">
          -46 callgsubr
          83 62 hstemhm
          91 171 2 65 112 75 -28 65 hintmask 11111100
          343 510 rmoveto
          -106 callgsubr
          2 676 -43 callsubr
          hintmask 11111010
          -90 callgsubr
        </CharString>
        <CharString name="ocircumflex">
          -31 510 77 107 -21 hstemhm
          91 363 -137 126 hintmask 11010000
          235 587 rmoveto
          82 hlineto
          89 86 rlineto
          hintmask 11100000
          48 -86 -41 callgsubr
          hintmask 11010000
          -87 -7 callgsubr
          -53 hlineto
          -47 -228 rmoveto
          hintmask 11100000
          -106 callgsubr
          endchar
        </CharString>
        <CharString name="odieresis">
          -46 callgsubr
          114 89 hstemhm
          91 171 -6 68 117 75 -71 66 hintmask 11101010
          343 510 rmoveto
          hintmask 11110100
          -106 callgsubr
          565 vmoveto
          61 0 callsubr
          hintmask 11101010
          -25 callgsubr
        </CharString>
        <CharString name="oe">
          274 -10 69 160 61 161 69 hstem
          105 74 254 79 239 72 vstem
          581 60 rmoveto
          -64 -27 27 52 -3 hvcurveto
          -1 22 5 27 7 31 308 -2 rcurveline
          17 57 11 40 3 36 -1 29 rlinecurve
          88 -3 -51 43 -93 hhcurveto
          -76 -62 -28 -66 -43 hvcurveto
          64 -15 -45 30 -81 hhcurveto
          -159 -64 -90 -163 -39 hvcurveto
          -13 -53 -6 -48 3 -46 rrcurveto
          -81 4 48 -39 104 hhcurveto
          86 54 27 57 41 hvcurveto
          -54 14 42 -30 78 hhcurveto
          81 101 16 0 hvcurveto
          12 63 rlineto
          0 -106 -9 -67 vhcurveto
          -321 -1 rmoveto
          -69 -27 23 50 -2 hvcurveto
          -3 32 8 41 12 52 rrcurveto
          127 30 45 57 97 hhcurveto
          56 28 -21 -46 8 hvcurveto
          7 -40 -8 -40 -9 -36 rrcurveto
          -112 -28 -28 -87 -117 hhcurveto
          252 221 rmoveto
          113 27 54 46 82 hhcurveto
          58 29 -21 -53 1 hvcurveto
          1 -23 -4 -29 -9 -35 rrcurveto
          endchar
        </CharString>
        <CharString name="ogonek">
          -98 1 callgsubr
          hstem
          145 82 vstem
          299 -132 rmoveto
          0 -34 -5 -14 -16 -8 7 13 36 64 63 28 22 vhcurveto
          -63 8 rlineto
          -34 -26 -77 -72 -55 vvcurveto
          -40 24 -23 46 32 45 9 3 callsubr
        </CharString>
        <CharString name="ograve">
          -46 callgsubr
          hstem
          91 171 179 75 vstem
          343 510 rmoveto
          -106 callgsubr
          24 686 -66 callsubr
          endchar
        </CharString>
        <CharString name="ohungarumlaut">
          -46 callgsubr
          hstem
          91 171 179 75 vstem
          343 510 rmoveto
          -106 callgsubr
          184 527 -39 callsubr
        </CharString>
        <CharString name="omacron">
          -46 callgsubr
          120 68 hstem
          91 171 179 75 vstem
          343 510 rmoveto
          -106 callgsubr
          -17 584 -64 callgsubr
        </CharString>
        <CharString name="one">
          35 568 93 hstem
          231 20 59 76 vstem
          231 526 rmoveto
          20 -62 189 104 -130 -568 -41 callgsubr
          151 661 rlineto
          -66 hlineto
          endchar
        </CharString>
        <CharString name="one.dnom">
          -79 14 callsubr
          177 81 vstem
          79 142 -82 callsubr
          endchar
        </CharString>
        <CharString name="one.numr">
          399 14 callsubr
          280 81 vstem
          182 620 -82 callsubr
          endchar
        </CharString>
        <CharString name="one.pnum">
          -201 21 -21 500 -20 hstem
          316 76 vstem
          105 383 rmoveto
          21 -64 163 89 -101 -408 rlineto
          80 hlineto
          124 500 -4 callgsubr
          endchar
        </CharString>
        <CharString name="onehalf">
          92 0 58 -47 -21 271 61 177 7 callgsubr
          178 70 -30 68 hintmask 0111111110000000
          -51 callgsubr
          hintmask 1011111101000000
          482 -15 rmoveto
          14 58 rlineto
          -127 hlineto
          76 60 49 36 29 31 12 46 rlinecurve
          62 16 -24 29 -69 hhcurveto
          -43 -63 -12 0 hvcurveto
          -12 -59 rlineto
          hintmask 0111111110000000
          0 58 10 29 vhcurveto
          hintmask 1011111101000000
          29 18 -10 -26 -7 hvcurveto
          -8 -30 -25 -23 -38 -30 -110 -86 rcurveline
          -14 -56 rlineto
          endchar
        </CharString>
        <CharString name="oneinferior">
          -79 14 callsubr
          180 81 vstem
          82 142 -82 callsubr
          endchar
        </CharString>
        <CharString name="onequarter">
          69 11 -21 31 -22 callsubr
          207 7 callgsubr
          127 63 -12 70 hintmask 1011111110100000
          -51 callgsubr
          hintmask 0111111111000000
          376 -15 -100 callgsubr
        </CharString>
        <CharString name="onesuperior">
          499 14 callsubr
          300 81 vstem
          202 -14 callsubr
          endchar
        </CharString>
        <CharString name="ordfeminine">
          -181 412 560 rmoveto
          76 17 -33 23 -72 hhcurveto
          -50 -74 -15 0 hvcurveto
          -8 -48 rlineto
          0 78 7 38 33 12 -10 -30 -7 vhcurveto
          -6 -22 -87 -6 -69 -4 -32 -27 -14 -55 rlinecurve
          -56 -13 24 -36 52 hhcurveto
          53 61 26 0 hvcurveto
          -17 11 11 -9 55 hhcurveto
          13 49 -11 2 -10 5 -4 9 rlinecurve
          -50 73 rmoveto
          -16 -67 rlineto
          0 -48 -17 -35 -23 -10 12 27 6 vhcurveto
          6 27 15 11 30 2 rrcurveto
          endchar
        </CharString>
        <CharString name="ordmasculine">
          -184 321 659 rmoveto
          -90 -51 -41 -107 -26 hvcurveto
          -5 -20 -3 -19 -16 vvcurveto
          -65 -2 38 -36 68 hhcurveto
          94 52 45 107 24 hvcurveto
          6 25 4 24 -4 28 rrcurveto
          53 -4 -46 22 -55 hhcurveto
          -57 -244 rmoveto
          -36 -15 15 33 14 3 16 5 19 hvcurveto
          66 16 25 22 47 hhcurveto
          35 16 -12 -33 -13 -2 -15 -4 -17 hvcurveto
          -71 -18 -25 -24 -47 hhcurveto
          endchar
        </CharString>
        <CharString name="oslash">
          -31 -92 248 104 -21 hstemhm
          104 179 -20 278 hintmask 11100000
          344 512 rmoveto
          -150 -102 -170 -186 -59 16 -41 29 -26 hvcurveto
          -77 -122 44 -19 72 117 rlineto
          hintmask 11010000
          -9 24 29 -5 34 hhcurveto
          159 95 167 183 59 -17 43 -31 28 hvcurveto
          72 113 -45 20 -67 -108 rlineto
          10 -24 -28 5 -33 hhcurveto
          -81 -455 rmoveto
          -19 -17 3 6 -13 hvcurveto
          107 173 106 167 rlineto
          10 -17 5 -22 -24 vvcurveto
          -150 -69 -136 -110 vhcurveto
          -83 40 rmoveto
          -9 15 -4 19 24 vvcurveto
          150 70 142 107 19 16 -3 -7 13 vhcurveto
          hintmask 11100000
          -109 -178 rlineto
          endchar
        </CharString>
        <CharString name="oslashacute">
          -31 -92 246 106 -21 371 -21 hstemhm
          107 179 -24 282 hintmask 11110000
          343 510 rmoveto
          -150 -102 -170 -186 -60 16 -42 31 -26 hvcurveto
          -75 -118 44 -19 70 114 rlineto
          hintmask 11101000
          -9 24 28 -4 33 hhcurveto
          159 95 167 183 58 -16 43 -30 28 hvcurveto
          74 116 -45 20 -68 -111 rlineto
          11 -25 -29 5 -34 hhcurveto
          -163 -417 rmoveto
          -9 15 -5 20 25 vvcurveto
          150 70 142 107 20 17 -4 -7 14 vhcurveto
          hintmask 11110000
          -108 -175 rlineto
          hintmask 11101000
          -24 -204 rmoveto
          -19 -15 3 5 -13 hvcurveto
          109 176 103 162 rlineto
          9 -16 5 -21 -23 vvcurveto
          -150 -69 -136 -110 vhcurveto
          32 541 -91 callgsubr
        </CharString>
        <CharString name="otilde">
          -46 callgsubr
          104 -21 callsubr
          91 171 179 75 hintmask 11101100
          343 510 rmoveto
          -106 callgsubr
          276 666 -58 callgsubr
          hintmask 11011100
          -96 callgsubr
          hintmask 11101100
          -84 callsubr
          endchar
        </CharString>
        <CharString name="p">
          -26 -222 -20 232 65 0 -20 410 65 hstem
          15 74 360 77 vstem
          15 -222 rmoveto
          74 hlineto
          53 231 rlineto
          0 74 -19 60 162 88 209 164 92 -40 55 -90 -83 -78 -99 0 vhcurveto
          19 89 rlineto
          -73 hlineto
          194 -55 rmoveto
          52 22 -30 -55 -118 -59 -187 -114 -55 -65 15 0 hvcurveto
          60 257 rlineto
          0 95 118 64 vhcurveto
          endchar
        </CharString>
        <CharString name="paragraph">
          32 21 -21 636 64 hstem
          147 275 -135 60 35 63 vstem
          382 hmoveto
          63 hlineto
          151 636 -5 callgsubr
          14 64 rlineto
          -310 hlineto
          -132 -92 -120 -107 -73 39 -67 105 -1 hvcurveto
          -81 -332 rlineto
          64 hlineto
          152 636 rlineto
          109 hlineto
          endchar
        </CharString>
        <CharString name="parenleft">
          -298 81 77 -56 71 134 71 hintmask 10100000
          307 748 -53 callsubr
        </CharString>
        <CharString name="parenleft.cap">
          -299 88 77 -56 71 134 71 hintmask 10100000
          314 778 -53 callsubr
        </CharString>
        <CharString name="parenright">
          -298 -6 71 134 71 -56 77 hintmask 10100000
          65 -118 -52 callgsubr
        </CharString>
        <CharString name="parenright.cap">
          -297 2 71 134 71 -56 77 hintmask 10100000
          73 -88 -52 callgsubr
        </CharString>
        <CharString name="partialdiff">
          35 -9 66 307 66 232 66 hstem
          129 79 295 80 vstem
          178 617 rmoveto
          0 85 45 73 119 43 -77 -185 5 vhcurveto
          0 -84 30 -80 -132 -78 -83 -132 -152 76 -72 147 164 67 121 249 259 -74 108 -161 -89 -85 -50 0 vhcurveto
          173 -314 rmoveto
          77 80 -30 0 hvcurveto
          -187 -2 -44 -90 -106 hhcurveto
          -96 -48 57 101 87 47 62 92 hvcurveto
          endchar
        </CharString>
        <CharString name="percent">
          35 0 51 -39 -21 237 52 142 51 177 52 7 -20 hstemhm
          164 60 0 99 0 60 -43 60 0 99 0 61 hintmask 0111100100100000
          295 650 rmoveto
          -36 -20 -28 -58 -15 hvcurveto
          -59 -15 6 -32 36 hhcurveto
          38 19 31 59 15 hvcurveto
          59 15 -5 28 -38 hhcurveto
          -140 -644 rmoveto
          51 -15 359 703 rlineto
          hintmask 1011011010100000
          -50 15 rlineto
          -351 -145 rmoveto
          hintmask 1011101010100000
          96 24 52 42 68 hhcurveto
          68 31 -42 -97 -24 hvcurveto
          -96 -24 -54 -45 -66 hhcurveto
          -68 -31 45 97 24 hvcurveto
          hintmask 1011101001010000
          176 -422 rmoveto
          -67 callgsubr
        </CharString>
        <CharString name="period">
          -357 72 76 vstem
          46 hmoveto
          -31 callsubr
          endchar
        </CharString>
        <CharString name="periodcentered">
          -355 245 145 hstemhm
          78 125 -74 77 hintmask 11000000
          103 245 4 callsubr
        </CharString>
        <CharString name="periodcentered.cap">
          -355 279 145 hstemhm
          87 125 -75 77 hintmask 11000000
          111 279 4 callsubr
        </CharString>
        <CharString name="perthousand">
          291 293 650 rmoveto
          -36 -20 -28 -59 -15 hvcurveto
          -59 -14 5 -31 36 hhcurveto
          38 20 30 60 15 hvcurveto
          59 15 -6 28 -38 hhcurveto
          -137 -646 rmoveto
          51 -13 363 704 -51 14 rlineto
          -357 -146 rmoveto
          96 24 52 42 68 hhcurveto
          68 32 -42 -96 -24 hvcurveto
          -97 -24 -55 -45 -66 hhcurveto
          -68 -31 45 97 24 hvcurveto
          179 -421 rmoveto
          -97 -24 32 -45 67 hhcurveto
          67 54 45 96 24 hvcurveto
          97 24 -32 42 -68 hhcurveto
          -68 -52 -42 -96 -24 hvcurveto
          61 hmoveto
          58 14 20 28 37 hhcurveto
          37 5 -28 -59 -14 hvcurveto
          -59 -15 -21 -31 -37 hhcurveto
          -36 -5 31 60 15 hvcurveto
          197 hmoveto
          -67 callgsubr
        </CharString>
        <CharString name="pi">
          35 -4 65 374 65 14 -20 hstemhm
          163 76 184 75 hintmask 10111000
          423 154 rmoveto
          -128 29 -30 133 vhcurveto
          65 vlineto
          -70 -17 18 75 hvcurveto
          283 vlineto
          68 2 28 12 0 vvcurveto
          63 vlineto
          hintmask 11011000
          0 -58 -14 -73 vhcurveto
          -235 hlineto
          -83 -59 -15 0 hvcurveto
          -63 vlineto
          0 43 12 65 1 vhcurveto
          -31 -435 -41 callgsubr
          28 435 rlineto
          156 hlineto
          endchar
        </CharString>
        <CharString name="plus">
          35 217 68 hstemhm
          113 449 -260 69 hintmask 11000000
          113 217 rmoveto
          hintmask 10100000
          189 -197 69 197 hlineto
          hintmask 11000000
          191 68 hlineto
          hintmask 10100000
          -191 195 -69 -195 hlineto
          hintmask 11000000
          -189 hlineto
          endchar
        </CharString>
        <CharString name="plusminus">
          35 38 68 187 68 hstem
          291 70 vstem
          103 293 rmoveto
          188 -127 70 127 191 68 -191 126 -70 -126 -188 hlineto
          -255 vmoveto
          -68 449 68 vlineto
          endchar
        </CharString>
        <CharString name="product">
          35 -142 -21 849 68 hstem
          201 77 206 77 vstem
          484 -163 rmoveto
          77 849 71 68 -500 -68 69 -849 77 849 206 hlineto
          endchar
        </CharString>
        <CharString name="q">
          -27 -195 -21 206 65 -44 -21 455 65 hstemhm
          88 77 144 74 hintmask 10111100
          217 -10 rmoveto
          87 75 99 0 hvcurveto
          -70 -305 rlineto
          74 hlineto
          162 701 rlineto
          0 -132 25 -75 -160 -90 -208 -165 -92 43 -55 86 vhcurveto
          121 455 rmoveto
          56 64 -15 0 hvcurveto
          -59 -258 rlineto
          hintmask 11011100
          0 -95 -117 -64 -53 -22 31 54 126 64 179 109 vhcurveto
          endchar
        </CharString>
        <CharString name="question">
          -111 22 -21 335 52 246 68 0 0 hstemhm
          -177 32 167 40 55 123 -74 77 -60 71 -64 72 162 80 hintmask 1110111000100000
          504 571 rmoveto
          95 -69 36 -96 -66 -88 -25 0 vhcurveto
          -6 -61 rlineto
          0 84 18 60 62 39 -16 -52 -68 -34 -32 -99 -78 vhcurveto
          hintmask 1101110001100000
          -60 -46 -33 -40 -8 -44 rrcurveto
          hintmask 1101110010100000
          -6 -29 -1 -33 0 vvcurveto
          71 hlineto
          hintmask 1101110001100000
          8 39 6 31 24 33 48 37 rlinecurve
          125 97 39 39 99 vvcurveto
          -363 -570 10 callgsubr
          hintmask 1101110100100000
          26 116 -33 callgsubr
          endchar
        </CharString>
        <CharString name="questiondown">
          -118 -201 21 callsubr
          23 -15 callsubr
          23 -70 -85 callsubr
        </CharString>
        <CharString name="questiondown.cap">
          -133 -2 21 callsubr
          60 -15 callsubr
          60 129 -85 callsubr
        </CharString>
        <CharString name="quotedbl">
          -212 475 -21 33 -21 228 -20 hstemhm
          206 70 -55 66 -50 66 -30 71 -55 71 -35 68 hintmask 0110100010000000
          hintmask 1010001000000000
          303 466 rmoveto
          hintmask 1011000100000000
          57 228 rlineto
          hintmask 0110010010000000
          -87 hlineto
          -52 -228 rlineto
          endchar
        </CharString>
        <CharString name="quotedblbase">
          -200 -135 -20 264 -21 hstem
          -45 74 92 74 vstem
          248 88 6 callgsubr
          -222 hmoveto
          -54 callgsubr
          endchar
        </CharString>
        <CharString name="quotedblleft">
          -187 469 -20 264 -21 hstem
          124 74 84 74 vstem
          251 692 6 callgsubr
          102 hmoveto
          -54 callgsubr
          endchar
        </CharString>
        <CharString name="quotedblright">
          -186 490 -21 223 -20 hstem
          252 74 84 -12 callgsubr
          214 hmoveto
          5 callsubr
        </CharString>
        <CharString name="quoteleft">
          -344 468 -20 264 -21 hstem
          125 74 vstem
          252 691 6 callgsubr
          endchar
        </CharString>
        <CharString name="quoteright">
          -344 490 -21 223 -20 hstem
          252 -12 callgsubr
          endchar
        </CharString>
        <CharString name="quotesinglbase">
          -353 -113 -21 223 -20 hstem
          95 74 vstem
          42 -134 rmoveto
          5 callsubr
        </CharString>
        <CharString name="quotesingle">
          -363 487 -21 228 -20 hstemhm
          154 66 -14 71 hintmask 11100000
          hintmask 11010000
          220 466 rmoveto
          57 228 rlineto
          hintmask 11100000
          -71 hlineto
          -52 -228 rlineto
          endchar
        </CharString>
        <CharString name="r">
          -9 callsubr
          hstem
          66 75 vstem
          -84 callgsubr
          endchar
        </CharString>
        <CharString name="racute">
          -9 callsubr
          99 -21 hstem
          66 75 vstem
          -84 callgsubr
          20 96 -91 callgsubr
        </CharString>
        <CharString name="radical">
          35 -136 65 517 -20 hstem
          114 378 rmoveto
          59 hlineto
          134 -514 rlineto
          122 hlineto
          249 913 -33 callgsubr
          -227 -848 rlineto
          -10 hlineto
          -128 517 rlineto
          -122 hlineto
          endchar
        </CharString>
        <CharString name="rcaron">
          -9 callsubr
          97 -42 callsubr
          hstem
          66 75 48 18 callsubr
          vstem
          -84 callgsubr
          134 87 -19 callsubr
        </CharString>
        <CharString name="rcommaaccent">
          -9 callsubr
          hstemhm
          58 70 -62 75 hintmask 11010000
          -84 callgsubr
          hintmask 11100000
          -124 -573 -74 callgsubr
          endchar
        </CharString>
        <CharString name="registered">
          119 161 44 184 47 102 47 79 43 hstem
          159 44 110 57 110 56 106 44 vstem
          12 callsubr
          152 156 -57 callgsubr
          -127 -125 -94 103 126 vhcurveto
          276 -152 rmoveto
          62 hlineto
          -55 115 rlineto
          38 17 12 27 49 vvcurveto
          71 -42 24 -71 vhcurveto
          -110 -303 57 107 60 hlineto
          -60 149 rmoveto
          48 hlineto
          42 20 -15 -36 -36 -16 -15 -35 hvcurveto
          -59 hlineto
          endchar
        </CharString>
        <CharString name="ring">
          266 544 49 96 58 hstem
          313 45 93 46 vstem
          313 643 -94 callgsubr
          endchar
        </CharString>
        <CharString name="ring.cap">
          -210 438 777 -68 callgsubr
          endchar
        </CharString>
        <CharString name="s">
          -96 -47 callsubr
          hstemhm
          123 75 152 77 hintmask 11101100
          16 callsubr
          hintmask 11011100
          -102 callgsubr
          hintmask 11101100
          -8 callsubr
          endchar
        </CharString>
        <CharString name="sacute">
          -96 -47 callsubr
          100 -21 hstemhm
          123 75 152 77 hintmask 11101110
          16 callsubr
          hintmask 11011110
          -102 callgsubr
          hintmask 11101110
          -8 callsubr
          -193 165 -91 callgsubr
        </CharString>
        <CharString name="scaron">
          -96 -47 callsubr
          98 -42 callsubr
          hstemhm
          123 75 48 120 -16 77 -54 158 hintmask 1110111010000000
          16 callsubr
          hintmask 1101111010000000
          -102 callgsubr
          hintmask 1110111101000000
          -8 callsubr
          -97 156 -19 callsubr
        </CharString>
        <CharString name="scedilla">
          -96 -16 callsubr
          35 65 -50 -20 236 64 146 58 -44 65 hstemhm
          123 75 -14 40 12 62 52 77 hintmask 1101110011100000
          298 -124 rmoveto
          -54 callsubr
          hintmask 1110110011100000
          9 35 rlineto
          116 4 91 59 119 vvcurveto
          73 -48 18 -89 22 vhcurveto
          hintmask 1101101101100000
          -73 19 -19 11 33 vvcurveto
          52 43 45 70 vhcurveto
          hintmask 1101110011100000
          -8 callsubr
          15 58 rlineto
          hintmask 1101101011100000
          0 -85 21 -80 vhcurveto
          hintmask 1101110101100000
          -112 -85 -72 -108 -67 48 -21 84 -21 hvcurveto
          68 -16 27 -8 -40 vvcurveto
          hintmask 1110110011100000
          -69 -56 -33 -76 -61 -92 16 0 vhcurveto
          -14 -58 rlineto
          0 62 -17 68 -5 vhcurveto
          -18 -78 rlineto
          39 hlineto
          22 19 -5 -28 -7 hvcurveto
          -26 -7 -16 -10 -28 hhcurveto
          hintmask 1101110101100000
          -25 -37 3 0 hvcurveto
          -13 -51 rlineto
          0 38 -7 42 58 37 27 60 13 vhcurveto
          endchar
        </CharString>
        <CharString name="scircumflex">
          -96 -47 callsubr
          98 -42 callsubr
          hstemhm
          123 75 15 76 61 77 -49 117 hintmask 1110111110000000
          16 callsubr
          hintmask 1101111110000000
          -102 callgsubr
          hintmask 1110111101000000
          -8 callsubr
          -257 156 10 callgsubr
          -89 callgsubr
        </CharString>
        <CharString name="scommaaccent">
          -97 -47 callsubr
          hstemhm
          122 75 -25 70 107 77 hintmask 11101010
          484 489 rmoveto
          hintmask 11011010
          -102 callgsubr
          hintmask 11100110
          -8 callsubr
          -297 -504 -74 callgsubr
          endchar
        </CharString>
        <CharString name="section">
          -55 -148 68 661 69 hstem
          170 76 160 77 vstem
          546 633 rmoveto
          0 -88 17 -62 -151 -75 -106 -88 -32 4 -25 16 -19 vhcurveto
          -14 -10 -73 -67 -83 vvcurveto
          -57 31 -38 98 -19 vhcurveto
          92 -20 21 -8 -42 vvcurveto
          -51 -49 -65 -89 -51 -101 14 0 vhcurveto
          -22 -66 rlineto
          0 101 -16 61 188 38 154 54 22 -1 16 -16 21 vhcurveto
          14 16 65 78 70 vvcurveto
          45 -26 48 -99 19 vhcurveto
          -70 13 -42 8 52 vvcurveto
          67 47 46 91 45 99 -14 0 vhcurveto
          -213 -238 rmoveto
          67 -12 24 -19 -32 vvcurveto
          -44 -46 -68 -6 -5 vhcurveto
          -22 12 -29 7 -36 8 rrcurveto
          -66 12 -21 17 37 vvcurveto
          46 51 59 4 5 vhcurveto
          8 -6 37 -10 35 -7 rrcurveto
          endchar
        </CharString>
        <CharString name="semicolon">
          -324 -108 -21 240 -20 hstemhm
          142 75 -49 76 hintmask 11100000
          -2 -129 rmoveto
          98 240 rlineto
          83 hlineto
          -120 -240 rlineto
          83 459 10 callgsubr
          hintmask 11010000
          26 -16 callgsubr
          endchar
        </CharString>
        <CharString name="seven">
          35 592 68 hstem
          529 74 vstem
          216 592 rmoveto
          321 hlineto
          -8 -36 -383 -546 70 -23 387 559 27 114 rlineto
          -398 hlineto
          endchar
        </CharString>
        <CharString name="seven.dnom">
          -88 19 callgsubr
          197 77 vstem
          70 150 -77 callsubr
        </CharString>
        <CharString name="seven.numr">
          390 19 callgsubr
          309 77 vstem
          182 628 -77 callsubr
        </CharString>
        <CharString name="seven.pnum">
          -127 5 -21 448 69 hstem
          121 432 rmoveto
          271 hlineto
          -7 -24 -297 -389 62 -35 316 418 24 99 rlineto
          -351 hlineto
          endchar
        </CharString>
        <CharString name="seveninferior">
          -88 19 callgsubr
          197 77 vstem
          70 150 -77 callsubr
        </CharString>
        <CharString name="sevensuperior">
          490 19 callgsubr
          326 77 vstem
          199 728 -77 callsubr
        </CharString>
        <CharString name="six">
          35 -10 67 0 -20 310 67 190 67 hstem
          112 79 300 78 vstem
          633 651 rmoveto
          0 -85 20 -78 -245 -113 -269 -185 -150 71 -77 120 170 96 108 156 98 -54 62 -122 -87 -92 -43 0 vhcurveto
          108 32 68 125 138 hhcurveto
          78 80 -16 0 hvcurveto
          -239 -241 rmoveto
          84 36 -34 -73 -103 -62 -80 -123 -80 -35 66 92 35 5 39 5 18 hvcurveto
          0 87 40 83 vhcurveto
          endchar
        </CharString>
        <CharString name="six.dnom">
          -110 -8 callgsubr
          37 61 89 66 vstem
          292 212 -102 callsubr
        </CharString>
        <CharString name="six.numr">
          368 -8 callgsubr
          147 61 89 66 vstem
          402 690 -102 callsubr
        </CharString>
        <CharString name="six.pnum">
          -52 -10 62 263 -20 147 68 hstem
          82 74 251 75 vstem
          532 489 rmoveto
          0 -88 21 -68 -195 -99 -175 -194 -89 44 -62 110 186 60 111 101 71 -32 42 -119 -52 -72 -22 -14 -28 vhcurveto
          116 30 66 47 91 hhcurveto
          71 73 -14 0 hvcurveto
          -201 -176 rmoveto
          82 16 -25 -35 -33 -17 -107 -137 -79 -18 45 52 20 5 31 3 16 hvcurveto
          0 79 36 66 vhcurveto
          endchar
        </CharString>
        <CharString name="sixinferior">
          -110 -8 callgsubr
          38 61 89 66 vstem
          293 212 -102 callsubr
        </CharString>
        <CharString name="sixsuperior">
          468 -8 callgsubr
          173 61 89 66 vstem
          428 790 -102 callsubr
        </CharString>
        <CharString name="slash">
          -106 11 -21 717 -20 hstem
          42 70 357 70 vstem
          112 -10 -59 callgsubr
          endchar
        </CharString>
        <CharString name="space">
          -305 endchar
        </CharString>
        <CharString name="sterling">
          35 607 662 rmoveto
          0 -81 17 -53 -122 -36 -74 -133 -31 vhcurveto
          -12 -51 -40 callsubr
          -16 -66 rlineto
          75 hlineto
          -65 -290 rlineto
          -96 hlineto
          -15 -65 rlineto
          322 hlineto
          78 18 1 64 -76 -17 rlineto
          -138 hlineto
          66 290 rlineto
          194 hlineto
          15 66 rlineto
          -194 hlineto
          10 43 rlineto
          88 22 15 60 77 hhcurveto
          49 70 -8 0 hvcurveto
          endchar
        </CharString>
        <CharString name="summation">
          35 -163 69 779 68 hstem
          379 308 rmoveto
          -267 -370 rlineto
          -101 470 69 -389 25 vlineto
          256 348 rlineto
          55 vlineto
          -256 329 rlineto
          22 389 68 -470 -99 vlineto
          endchar
        </CharString>
        <CharString name="t">
          11 callsubr
          401 435 -91 callsubr
          endchar
        </CharString>
        <CharString name="tbar">
          -203 -10 65 200 65 115 65 148 -20 hstem
          404 435 rmoveto
          16 65 rlineto
          -140 hlineto
          36 148 -40 callsubr
          -35 -148 rlineto
          -65 hlineto
          -17 -65 rlineto
          66 hlineto
          -27 -115 rlineto
          -55 hlineto
          -15 -65 rlineto
          54 hlineto
          -15 -67 rlineto
          -8 -32 -8 -39 -32 vvcurveto
          -59 37 -36 66 45 52 14 0 vhcurveto
          5 57 rlineto
          0 -51 -6 -26 -36 -14 18 28 22 5 33 7 28 vhcurveto
          16 71 rlineto
          133 hlineto
          16 65 rlineto
          -134 hlineto
          27 115 rlineto
          endchar
        </CharString>
        <CharString name="tcaron">
          -122 -10 65 380 65 -19 -21 188 -20 64 -20 hstemhm
          501 68 hintmask 10111100
          569 -25 callsubr
          68 hlineto
          hintmask 11011100
          -113 -25 -91 callsubr
          endchar
        </CharString>
        <CharString name="tcedilla">
          -207 -16 callsubr
          35 65 -51 -20 451 65 148 -20 hstemhm
          179 37 14 62 hintmask 11101111
          292 -124 rmoveto
          -54 callsubr
          9 35 rlineto
          2 hlineto
          hintmask 11011111
          45 52 14 0 hvcurveto
          5 57 rlineto
          hintmask 11101111
          0 -51 -6 -26 -36 -14 18 28 22 5 33 7 28 vhcurveto
          58 251 rlineto
          140 hlineto
          16 65 rlineto
          -140 hlineto
          36 148 -40 callsubr
          -35 -148 rlineto
          -65 hlineto
          -17 -65 rlineto
          66 hlineto
          -58 -247 rlineto
          -8 -32 -8 -39 -32 vvcurveto
          -46 22 -32 41 -11 vhcurveto
          -19 -83 -95 callgsubr
          endchar
        </CharString>
        <CharString name="tcommaaccent">
          11 callsubr
          141 70 vstem
          401 435 -91 callsubr
          -120 -508 -74 callgsubr
          endchar
        </CharString>
        <CharString name="thorn">
          -42 -199 -21 210 69 380 71 206 -20 hstem
          234 71 121 72 vstem
          384 510 rmoveto
          -66 -67 -53 -7 -9 hvcurveto
          63 266 rlineto
          -71 hlineto
          -221 -936 rlineto
          70 hlineto
          52 219 rlineto
          -2 50 -7 47 142 74 81 187 50 vhcurveto
          102 29 -1 150 -142 hhcurveto
          -160 -133 rmoveto
          -2 75 64 63 87 -4 -114 -66 -19 vhcurveto
          -131 -36 -47 -69 -98 hhcurveto
          -94 10 rlineto
          endchar
        </CharString>
        <CharString name="three">
          35 -10 67 252 63 184 -21 69 67 hstemhm
          459 78 -22 78 hintmask 11110100
          214 585 rmoveto
          0 98 19 88 80 35 -27 -61 -84 -92 -59 -64 -1 vhcurveto
          -130 -2 -15 -61 rlineto
          129 hlineto
          hintmask 11111000
          84 -1 32 -36 -58 vvcurveto
          -98 -85 -59 -101 -76 -108 24 0 vhcurveto
          -17 -57 rlineto
          0 99 -34 96 153 117 86 142 77 -30 33 -49 23 vhcurveto
          hintmask 11110100
          81 33 54 55 96 vvcurveto
          90 -55 46 -123 -98 -96 -30 3 callsubr
        </CharString>
        <CharString name="three.dnom">
          -110 1 callsubr
          179 66 vstem
          85 212 -103 callgsubr
          endchar
        </CharString>
        <CharString name="three.numr">
          368 1 callsubr
          292 66 vstem
          198 690 -103 callgsubr
          endchar
        </CharString>
        <CharString name="three.pnum">
          -73 -9 71 164 67 146 70 hstemhm
          378 76 -34 79 hintmask 11101000
          161 489 rmoveto
          -9 -66 rlineto
          0 99 16 76 68 25 -11 -38 -64 -63 -33 -57 vhcurveto
          -124 hlineto
          -17 -67 rlineto
          122 hlineto
          hintmask 11110000
          41 56 -8 -49 -57 -43 -50 -99 -75 -102 15 0 hvcurveto
          -25 -66 rlineto
          0 107 -20 87 166 60 97 93 41 -31 33 -46 9 vhcurveto
          hintmask 11101000
          37 5 85 34 113 vvcurveto
          50 -37 43 -117 -78 -106 -20 3 callsubr
        </CharString>
        <CharString name="threeinferior">
          -110 1 callsubr
          178 66 vstem
          84 212 -103 callgsubr
          endchar
        </CharString>
        <CharString name="threequarters">
          84 11 -21 31 -22 callsubr
          176 59 83 54 43 -20 54 59 hstemhm
          124 70 116 66 125 63 -13 70 hintmask 1011111111010000
          216 790 -103 callgsubr
          -22 -800 -59 callgsubr
          hintmask 0111111111100000
          377 -15 -100 callgsubr
        </CharString>
        <CharString name="threesuperior">
          468 1 callsubr
          314 66 vstem
          220 790 -103 callgsubr
          endchar
        </CharString>
        <CharString name="tilde">
          -98 614 -21 callsubr
          hintmask 10000000
          519 721 -58 callgsubr
          hintmask 01000000
          -96 callgsubr
          hintmask 10000000
          -84 callsubr
          endchar
        </CharString>
        <CharString name="tilde.cap">
          -92 587 921 -92 callsubr
          endchar
        </CharString>
        <CharString name="trademark">
          174 352 -21 22 -21 248 50 hstemhm
          298 55 97 52 175 52 hintmask 01111100
          219 580 rmoveto
          79 -248 55 248 66 50 -200 hlineto
          hintmask 10111100
          231 -299 rmoveto
          52 224 hlineto
          65 -209 rlineto
          43 hlineto
          67 209 rlineto
          -224 52 299 -71 vlineto
          -70 -208 -67 208 rlineto
          -71 hlineto
          endchar
        </CharString>
        <CharString name="two">
          35 0 67 537 67 hstem
          522 78 vstem
          490 hmoveto
          16 67 rlineto
          -329 hlineto
          241 192 rlineto
          102 81 80 76 110 vvcurveto
          100 -64 45 -124 -89 -100 -29 0 vhcurveto
          -8 -59 rlineto
          0 105 21 76 84 42 -24 -68 -73 -74 -69 -110 -92 vhcurveto
          -256 -215 -15 -63 rlineto
          endchar
        </CharString>
        <CharString name="two.dnom">
          -100 15 callsubr
          206 68 vstem
          221 -100 -96 callsubr
        </CharString>
        <CharString name="two.numr">
          378 15 callsubr
          313 68 vstem
          328 378 -96 callsubr
        </CharString>
        <CharString name="two.pnum">
          -86 21 -21 437 72 hstem
          398 87 vstem
          411 hmoveto
          13 71 rlineto
          -256 hlineto
          176 123 rlineto
          74 51 67 59 98 vvcurveto
          59 -41 48 -106 -80 -107 -23 0 vhcurveto
          -12 -67 rlineto
          1 1 101 17 62 hhcurveto
          78 17 -23 -33 -58 -86 -69 -76 -52 hvcurveto
          -189 -134 -16 -68 rlineto
          endchar
        </CharString>
        <CharString name="twoinferior">
          -100 15 callsubr
          204 68 vstem
          219 -100 -96 callsubr
        </CharString>
        <CharString name="twosuperior">
          478 15 callsubr
          336 68 vstem
          351 478 -96 callsubr
        </CharString>
        <CharString name="u">
          -44 callsubr
          -1 callgsubr
          hintmask 10111000
          473 500 rmoveto
          -77 -332 rlineto
          -98 callsubr
          hintmask 01111000
          -79 callgsubr
          hintmask 10111000
          -80 callgsubr
          endchar
        </CharString>
        <CharString name="uacute">
          -44 callsubr
          130 -21 -1 callgsubr
          hintmask 10111100
          473 500 rmoveto
          -77 -332 rlineto
          -98 callsubr
          hintmask 01111100
          -79 callgsubr
          hintmask 10111100
          -80 callgsubr
          -234 96 -91 callgsubr
        </CharString>
        <CharString name="ubreve">
          -44 callsubr
          113 62 hstemhm
          98 76 89 65 31 73 55 65 hintmask 10111111
          473 500 rmoveto
          -77 -332 rlineto
          -98 callsubr
          hintmask 01111111
          -79 callgsubr
          hintmask 10111111
          -80 callgsubr
          -284 231 -43 callsubr
          -90 callgsubr
        </CharString>
        <CharString name="ucircumflex">
          -27 77 -21 195 422 -86 -20 hstemhm
          193 58 145 43 hintmask 10111000
          220 587 rmoveto
          82 hlineto
          hintmask 11011000
          89 86 rlineto
          hintmask 10111000
          -4 callsubr
          75 hlineto
          -86 -7 callgsubr
          -53 hlineto
          98 -238 rmoveto
          4 callgsubr
          vhcurveto
          hintmask 11011000
          -42 callgsubr
          vhcurveto
          -50 callgsubr
        </CharString>
        <CharString name="udieresis">
          -27 131 582 -524 -21 452 -20 hstemhm
          174 19 77 203 hintmask 01111000
          248 620 rmoveto
          69 hlineto
          hintmask 10011000
          -53 callgsubr
          hintmask 01111000
          168 -93 rmoveto
          67 hlineto
          hintmask 10011000
          -53 callgsubr
          hintmask 01111000
          15 -213 -73 callsubr
        </CharString>
        <CharString name="ugrave">
          -27 246 436 -161 -21 148 -20 hstemhm
          98 20 75 95 hintmask 01111000
          hintmask 10011000
          288 741 rmoveto
          hintmask 01111000
          -36 -59 188 -86 33 52 rlineto
          -148 vmoveto
          4 callgsubr
          -42 callgsubr
          vhcurveto
          58 249 -48 callgsubr
          hintmask 10011000
          -20 callsubr
          -9 -36 -11 -53 -41 vvcurveto
          -79 callgsubr
          -18 -87 -18 callsubr
          hintmask 01111000
          115 -17 callgsubr
          endchar
        </CharString>
        <CharString name="uhungarumlaut">
          -27 131 631 -573 -21 414 -20 hstemhm
          174 19 236 44 hintmask 01111000
          468 582 rmoveto
          173 137 rlineto
          hintmask 10011000
          -43 43 -169 -139 rlineto
          hintmask 01111000
          -143 -41 rmoveto
          172 137 -43 42 -168 -138 rlineto
          226 -123 -73 callsubr
        </CharString>
        <CharString name="umacron">
          -44 callsubr
          150 68 -1 callgsubr
          hintmask 10111100
          473 500 rmoveto
          -77 -332 rlineto
          -98 callsubr
          hintmask 01111100
          -79 callgsubr
          hintmask 10111100
          -80 callgsubr
          -303 139 -64 callgsubr
        </CharString>
        <CharString name="underscore">
          52 -152 73 hstem
          46 -79 rmoveto
          -16 -73 rlineto
          447 hlineto
          17 73 rlineto
          endchar
        </CharString>
        <CharString name="uni00A0">
          -305 endchar
        </CharString>
        <CharString name="uni1EAB">
          -25 -63 callgsubr
          68 -42 callsubr
          50 -21 callsubr
          89 77 86 76 89 117 hintmask 1111101110000000
          217 -10 -107 callgsubr
          252 400 -58 callgsubr
          hintmask 1111011110000000
          -96 callgsubr
          hintmask 1111101110000000
          -84 callsubr
          -347 -232 10 callgsubr
          -89 callgsubr
        </CharString>
        <CharString name="uni1EB0">
          6 callsubr
          391 -327 60 195 -21 hstemhm
          24 78 243 66 182 33 hintmask 0110111110000000
          hintmask 0111001110000000
          441 1083 -66 callsubr
          -602 -990 -7 callsubr
          hintmask 1000111110000000
          -14 692 rlineto
          -149 hlineto
          -87 callsubr
          122 639 rmoveto
          hintmask 1001001110000000
          -93 callgsubr
          endchar
        </CharString>
        <CharString name="uni1EC5">
          -65 callgsubr
          68 -42 callsubr
          50 -21 callsubr
          91 75 67 76 48 3 38 117 -81 74 hintmask 1111110111010000
          575 845 -58 callgsubr
          hintmask 1111101111010000
          -96 callgsubr
          hintmask 1111110111010000
          -84 callsubr
          -318 -733 -106 callsubr
          -9 270 10 callgsubr
          hintmask 1111110111100000
          -89 callgsubr
        </CharString>
        <CharString name="uni1ED7">
          -46 callgsubr
          68 -42 callsubr
          50 -21 callsubr
          91 171 -30 76 89 117 -73 75 hintmask 1111101001000000
          343 510 rmoveto
          -106 callgsubr
          318 790 -58 callgsubr
          hintmask 1111011001000000
          -96 callgsubr
          hintmask 1111100110000000
          -84 callsubr
          -353 -232 10 callgsubr
          -89 callgsubr
        </CharString>
        <CharString name="uni1EF8">
          -32 21 -21 810 -21 callsubr
          170 78 -42 73 279 83 hintmask 11001100
          590 917 -58 callgsubr
          hintmask 10101100
          -96 callgsubr
          hintmask 11010100
          -84 callsubr
          46 -169 -80 callsubr
          rlineto
          hintmask 11001100
          -65 callsubr
        </CharString>
        <CharString name="uni1EF9">
          -31 callgsubr
          134 -21 callsubr
          152 61 hintmask 11110100
          529 721 -58 callgsubr
          hintmask 11101100
          -96 callgsubr
          hintmask 11110100
          -84 callsubr
          -395 -165 -95 callsubr
          endchar
        </CharString>
        <CharString name="uogonek">
          -27 -204 67 137 56 -45 -21 22 -20 508 -20 hstemhm
          98 76 83 82 21 72 hintmask 10011111
          473 500 rmoveto
          -35 callsubr
          hintmask 11001111
          -98 callsubr
          hintmask 10101111
          -79 callgsubr
          -17 -82 rlineto
          -37 -30 -66 -65 -51 -72 callgsubr
          vhcurveto
          hintmask 11001111
          36 62 59 31 22 vhcurveto
          115 -17 callgsubr
          endchar
        </CharString>
        <CharString name="uring">
          -44 callsubr
          64 49 96 58 hstemhm
          98 76 123 45 17 73 3 46 hintmask 1011111110000000
          297 643 -94 callgsubr
          131 -143 rmoveto
          -77 -332 rlineto
          -98 callsubr
          hintmask 0111111110000000
          -79 callgsubr
          hintmask 1011111110000000
          -80 callgsubr
          endchar
        </CharString>
        <CharString name="utilde">
          -44 callsubr
          134 66 -18 66 -1 callgsubr
          hintmask 10110110
          542 721 -58 callgsubr
          hintmask 10101110
          -96 callgsubr
          hintmask 10110110
          -84 callsubr
          -74 -165 rmoveto
          -77 -332 rlineto
          -98 callsubr
          hintmask 01110110
          -79 callgsubr
          hintmask 10110110
          -80 callgsubr
          endchar
        </CharString>
        <CharString name="v">
          -71 0 64 436 -20 hstem
          139 13 140 254 vstem
          139 500 rmoveto
          13 -500 rlineto
          140 hlineto
          254 500 -33 callgsubr
          -217 -436 rlineto
          -31 hlineto
          -8 436 rlineto
          endchar
        </CharString>
        <CharString name="w">
          -9 callgsubr
          hstem
          144 123 190 360 vstem
          144 500 -100 callsubr
          endchar
        </CharString>
        <CharString name="wacute">
          -9 callgsubr
          130 -21 hstem
          144 123 190 360 vstem
          144 500 -100 callsubr
          187 96 -91 callgsubr
        </CharString>
        <CharString name="wcircumflex">
          -9 callgsubr
          128 -42 callsubr
          hstemhm
          144 123 79 76 35 360 -306 117 hintmask 11111110
          144 500 -100 callsubr
          127 87 10 callgsubr
          hintmask 11111101
          -89 callgsubr
        </CharString>
        <CharString name="wdieresis">
          -9 callgsubr
          144 89 hstemhm
          144 123 100 68 22 360 -261 66 hintmask 11111100
          144 500 -100 callsubr
          154 120 rmoveto
          61 0 callsubr
          hintmask 11111010
          -25 callgsubr
        </CharString>
        <CharString name="wgrave">
          206 0 0 648 -20 hstem
          144 123 83 221 vstem
          386 12 callgsubr
          -427 -148 -100 callsubr
          endchar
        </CharString>
        <CharString name="x">
          -106 137 500 rmoveto
          88 -250 -206 -250 rlineto
          81 hlineto
          154 193 65 -193 rlineto
          78 hlineto
          -89 244 209 256 rlineto
          -80 hlineto
          -156 -197 -67 197 rlineto
          endchar
        </CharString>
        <CharString name="y">
          -31 callgsubr
          hstem
          152 61 -51 callsubr
          endchar
        </CharString>
        <CharString name="yacute">
          -31 callgsubr
          130 -21 hstem
          152 61 -51 callsubr
          76 96 -91 callgsubr
        </CharString>
        <CharString name="ycircumflex">
          -31 callgsubr
          128 -42 callsubr
          hstem
          152 61 3 76 89 117 -51 callsubr
          3 87 10 callgsubr
          -89 callgsubr
        </CharString>
        <CharString name="ydieresis">
          -71 620 -20 113 -20 41 -21 hstem
          152 144 vstem
          228 22 callgsubr
          169 -93 rmoveto
          67 -29 callsubr
          -299 -213 -95 callsubr
          endchar
        </CharString>
        <CharString name="yen">
          35 21 -21 160 67 83 67 284 -20 hstem
          141 310 rmoveto
          166 hlineto
          4 -16 -16 -67 rlineto
          -173 hlineto
          -16 -67 rlineto
          174 hlineto
          -37 -160 -41 callgsubr
          37 160 rlineto
          170 hlineto
          16 67 rlineto
          -170 hlineto
          15 66 14 17 rlineto
          160 hlineto
          15 67 rlineto
          -122 hlineto
          239 284 rlineto
          -99 hlineto
          -231 -279 -113 279 rlineto
          -82 hlineto
          114 -284 rlineto
          -125 hlineto
          endchar
        </CharString>
        <CharString name="ygrave">
          -71 -221 -20 889 -20 134 -21 hstem
          404 142 vstem
          252 12 callgsubr
          -298 -148 -95 callsubr
          endchar
        </CharString>
        <CharString name="z">
          -2 callsubr
          hstem
          138 435 -45 callgsubr
        </CharString>
        <CharString name="zacute">
          -2 callsubr
          110 -21 -48 callsubr
          120 161 -91 callgsubr
        </CharString>
        <CharString name="zcaron">
          -2 callsubr
          108 -42 callsubr
          hstem
          228 18 callsubr
          vstem
          355 587 -78 callgsubr
          -175 -152 -45 callgsubr
        </CharString>
        <CharString name="zdotaccent">
          -2 callsubr
          -48 callsubr
          168 170 -40 callgsubr
        </CharString>
        <CharString name="zero">
          35 -10 67 -46 -21 614 67 hstem
          102 78 352 78 vstem
          410 671 rmoveto
          -197 -111 -249 -240 -125 67 -67 131 192 118 234 251 127 -65 69 -135 hvcurveto
          -1 -67 rmoveto
          84 39 -47 -90 -177 -80 -233 -152 -78 -42 42 92 163 74 250 155 hvcurveto
          endchar
        </CharString>
        <CharString name="zero.dnom">
          -110 18 callgsubr
          36 66 106 66 vstem
          196 222 -101 callsubr
        </CharString>
        <CharString name="zero.numr">
          368 18 callgsubr
          143 66 106 66 vstem
          303 700 -101 callsubr
        </CharString>
        <CharString name="zero.pnum">
          -10 -9 70 378 70 hstem
          81 82 304 82 vstem
          377 509 rmoveto
          -58 -51 -15 -29 -42 hvcurveto
          -94 -64 -51 -125 -122 vvcurveto
          -105 51 -58 115 75 60 23 38 45 vhcurveto
          86 73 36 125 92 vvcurveto
          109 -48 58 -124 vhcurveto
          -16 -70 rmoveto
          77 29 -35 -78 -48 -35 -217 -166 -73 -30 35 71 136 76 136 122 hvcurveto
          endchar
        </CharString>
        <CharString name="zero.slash">
          35 -97 -21 108 71 -50 -21 610 71 127 -20 hstem
          33 50 15 82 352 82 1 52 vstem
          414 671 rmoveto
          -199 -117 -236 -244 -54 14 -44 25 -33 hvcurveto
          -104 -160 50 -18 92 141 rlineto
          -22 31 41 -11 47 hhcurveto
          221 99 250 228 66 -18 51 -33 34 hvcurveto
          104 159 -52 20 -96 -148 rlineto
          14 -29 -35 7 -41 hhcurveto
          118 -211 rmoveto
          -177 -75 -222 -157 -33 -28 10 19 -21 vhcurveto
          296 454 rlineto
          12 -22 6 -28 -34 vvcurveto
          -124 140 rmoveto
          27 23 -6 -10 18 hvcurveto
          -288 -445 rlineto
          -5 17 -3 20 22 vvcurveto
          176 69 226 159 vhcurveto
          endchar
        </CharString>
        <CharString name="zeroinferior">
          -10 18 callgsubr
          58 66 106 66 vstem
          218 322 -101 callsubr
        </CharString>
        <CharString name="zerosuperior">
          468 18 callgsubr
          167 66 106 66 vstem
          327 800 -101 callsubr
        </CharString>
      <CharString index="0">
        rmoveto
        87 83 116 0 hvcurveto
        -4 -21 -14 -86 0 vvcurveto
        73 3 rlineto
        -62 callgsubr
        76 325 rlineto
        0 -142 25 -63 -169 -83 -215 -156 -92 39 -57 89 vhcurveto
        125 455 rmoveto
        47 70 -14 0 hvcurveto
        -57 -245 rlineto
        0 -99 -131 -63 -56 -18 31 53 124 60 182 116 vhcurveto
        return
      </CharString>
      <CharString index="1">
        -150 -102 -170 -186 -115 60 -49 111 159 95 167 183 115 -61 55 -112 hvcurveto
        -81 -455 rmoveto
        -64 -32 35 63 150 70 142 107 67 31 -42 -62 -150 -69 -136 -110 hvcurveto
        return
      </CharString>
      <CharString index="2">
        99 42 -44 -100 -137 -45 -176 -96 -79 hvcurveto
        -104 callsubr
        return
      </CharString>
      <CharString index="3">
        rmoveto
        -77 -44 -26 -59 -15 hvcurveto
        -11 -46 17 -19 21 -8 -26 -9 -31 -20 -13 -50 rrcurveto
        -70 -17 41 -25 72 hhcurveto
        73 51 21 78 20 hvcurveto
        12 48 -20 18 -23 8 28 7 24 23 11 44 rrcurveto
        56 14 -32 29 -75 hhcurveto
        -69 -277 rmoveto
        -33 -17 13 28 8 hvcurveto
        7 29 16 12 28 8 rrcurveto
        27 hlineto
        24 -8 10 -12 -6 -26 rrcurveto
        -31 -9 -21 -13 -34 hhcurveto
        55 222 rmoveto
        35 11 -12 -25 -6 hvcurveto
        -6 -23 -12 -11 -28 -9 rrcurveto
        -28 hlineto
        -22 9 -8 11 6 24 rrcurveto
        24 6 17 12 35 hhcurveto
        endchar
      </CharString>
      <CharString index="4">
        rmoveto
        -10 -56 rlineto
        0 51 7 42 33 10 -10 -23 -5 vhcurveto
        -25 -7 -25 -19 -18 hhcurveto
        -65 hlineto
        -13 -54 rlineto
        66 hlineto
        27 17 -10 -32 -9 hvcurveto
        -25 -6 -18 -16 -35 hhcurveto
        -43 -56 7 0 hvcurveto
        -18 -56 rlineto
        0 61 -10 49 67 48 31 66 17 vhcurveto
        13 52 -15 14 -27 10 8 5 39 21 12 49 rrcurveto
        58 14 -28 26 -71 hhcurveto
        -43 -62 -10 0 hvcurveto
        return
      </CharString>
      <CharString index="5">
        0 -85 21 -80 -112 -85 -72 -108 -67 48 -21 84 -21 vhcurveto
        68 -16 27 -8 -40 vvcurveto
        -69 -56 -33 -76 -61 -92 16 0 vhcurveto
        -14 -58 rlineto
        0 81 -23 77 121 97 59 123 73 -48 18 -89 22 vhcurveto
        -73 19 -19 11 33 vvcurveto
        52 43 45 70 vhcurveto
        return
      </CharString>
      <CharString index="6">
        rmoveto
        0 48 -12 41 91 45 45 120 30 vhcurveto
        111 27 -24 56 -79 hhcurveto
        -70 -52 -39 -71 -17 hvcurveto
        -65 -17 27 -39 64 29 37 12 -1 hhcurveto
        -46 -12 -24 -25 -45 hhcurveto
        -37 -44 6 0 hvcurveto
        120 106 rmoveto
        -28 -11 22 30 7 hvcurveto
        34 9 22 17 30 hhcurveto
        36 6 -32 -56 -13 hvcurveto
        0 -35 -15 -23 vhcurveto
        endchar
      </CharString>
      <CharString index="7">
        rmoveto
        63 hlineto
        12 48 rlineto
        27 hlineto
        14 59 rlineto
        -27 hlineto
        23 88 rlineto
        -58 hlineto
        -28 -88 rlineto
        -73 hlineto
        124 205 rlineto
        -72 hlineto
        -122 -209 -13 -55 9 callsubr
        endchar
      </CharString>
      <CharString index="8">
        rmoveto
        -54 -178 48 -6 rlineto
        0 29 15 27 25 13 -11 -34 -9 vhcurveto
        -33 -8 -24 -16 -28 hhcurveto
        -40 -52 11 0 hvcurveto
        -19 -55 rlineto
        0 56 -13 48 67 47 28 80 21 vhcurveto
        71 18 -34 28 -54 hhcurveto
        -32 -29 -15 0 hvcurveto
        24 71 rlineto
        133 hlineto
        14 57 rlineto
        endchar
      </CharString>
      <CharString index="9">
        rmoveto
        -293 -162 -122 -334 -79 hvcurveto
        -220 -52 44 -246 344 hhcurveto
        45 96 9 0 hvcurveto
        13 66 rlineto
        0 -99 -9 -37 -293 -39 186 214 51 vhcurveto
        274 67 131 116 250 hhcurveto
        291 22 -156 -192 -45 hvcurveto
        -208 -49 -45 -38 -60 hhcurveto
        -34 -20 6 36 1 hvcurveto
        2 51 68 286 11 45 rrcurveto
        12 -69 -87 13 -39 hhcurveto
        -140 -80 -109 -185 -34 hvcurveto
        -16 -92 -6 -135 138 1 rrcurveto
        61 90 36 20 40 hvcurveto
        -41 9 35 -15 54 hhcurveto
        108 69 51 256 62 hvcurveto
        230 55 -53 194 -326 hhcurveto
        -186 -664 rmoveto
        -72 1 -4 78 17 79 rrcurveto
        139 30 46 91 100 hhcurveto
        38 48 -8 -6 26 hvcurveto
        -27 -110 -39 -178 -3 -34 rrcurveto
        -21 -38 -68 -31 -54 hhcurveto
        endchar
      </CharString>
      <CharString index="10">
        531 60 rmoveto
        -65 -23 30 50 -2 hvcurveto
        -1 23 4 27 7 29 305 -2 rcurveline
        15 55 rlineto
        10 36 4 34 33 vvcurveto
        90 -2 -49 45 -93 hhcurveto
        -66 -58 -23 -51 -42 hvcurveto
        49 -10 -43 25 -56 hhcurveto
        -73 -114 -15 0 hvcurveto
        -12 -69 rlineto
        0 110 11 70 83 -23 -88 -44 -15 vhcurveto
        -49 -2 -51 -4 -51 -8 -88 -14 -67 -35 -19 -98 rrcurveto
        -78 -17 28 -76 88 hhcurveto
        60 105 32 22 51 hvcurveto
        -35 22 42 -19 65 hhcurveto
        79 101 16 0 hvcurveto
        13 63 rlineto
        0 -105 -9 -68 vhcurveto
        -341 -3 rmoveto
        -51 -6 51 38 9 hvcurveto
        13 51 36 25 51 8 39 5 47 5 52 4 -12 -51 -12 -49 10 -49 rrcurveto
        -16 -48 -80 -22 -48 hhcurveto
        274 223 rmoveto
        113 27 51 49 82 hhcurveto
        57 29 -24 -54 2 hvcurveto
        1 -24 -3 -28 -9 -34 rrcurveto
        return
      </CharString>
      <CharString index="11">
        -26 -57 48 -43 hhcurveto
        -37 -62 -53 0 hvcurveto
        3 -56 rlineto
        0 57 43 23 vhcurveto
        return
      </CharString>
      <CharString index="12">
        rlineto
        39 hlineto
        22 19 -5 -28 -7 hvcurveto
        -26 -7 -16 -10 -28 hhcurveto
        -25 -37 3 0 hvcurveto
        -13 -51 rlineto
        0 38 -7 42 58 37 27 60 13 vhcurveto
        return
      </CharString>
      <CharString index="13">
        rmoveto
        -56 -12 19 -43 60 hhcurveto
        60 51 45 66 6 hvcurveto
        51 6 -23 34 -51 hhcurveto
        -61 -44 -45 -52 -11 hvcurveto
        45 hmoveto
        26 7 24 20 28 hhcurveto
        26 14 -23 -24 -6 hvcurveto
        -27 -7 -24 -22 -27 hhcurveto
        -27 -14 26 24 6 hvcurveto
        return
      </CharString>
      <CharString index="14">
        -85 -14 42 -42 84 hhcurveto
        90 57 47 80 23 hvcurveto
        -66 hlineto
        -41 -12 -38 -26 -41 hhcurveto
        -43 -24 15 52 8 hvcurveto
        return
      </CharString>
      <CharString index="15">
        69 -10 68 634 -20 hstem
        309 692 -107 callsubr
        return
      </CharString>
      <CharString index="16">
        rmoveto
        228 86 -7 66 -76 callsubr
        endchar
      </CharString>
      <CharString index="17">
        104 53 55 83 24 hvcurveto
        -65 hlineto
        -44 -13 -30 -32 -55 hhcurveto
        -53 -18 33 43 10 hvcurveto
        endchar
      </CharString>
      <CharString index="18">
        -28 callgsubr
        69 -37 callsubr
        -40 hlineto
        endchar
      </CharString>
      <CharString index="19">
        -77 hlineto
        -262 -621 rlineto
        -26 hlineto
        19 611 rlineto
        -84 hlineto
        -269 -611 rlineto
        -26 hlineto
        31 621 rlineto
        endchar
      </CharString>
      <CharString index="20">
        -87 -50 38 89 188 80 261 186 90 100 -21 0 hvcurveto
        -73 callgsubr
        return
      </CharString>
      <CharString index="21">
        rmoveto
        50 -26 23 -37 17 vhcurveto
        71 23 31 31 19 84 4 19 14 80 4 21 rrcurveto
        hintmask 11010000
        16 70 33 40 89 5 12 68 rcurveline
        -121 -5 -59 -43 -33 -106 -8 -22 -13 -82 -8 -36 -13 -62 -17 -29 -91 -24 -14 -59 rcurveline
        50 -18 22 -22 -41 -39 -47 -120 -57 vvcurveto
        -74 50 -39 94 -2 vhcurveto
        19 68 rlineto
        -60 -29 23 46 hvcurveto
        52 48 120 40 vvcurveto
        endchar
      </CharString>
      <CharString index="22">
        76 331 rlineto
        0 89 113 66 48 19 -28 -47 -34 -11 -54 -7 -32 vhcurveto
        -58 -249 rlineto
        74 hlineto
        58 252 rlineto
        9 37 12 54 41 vvcurveto
        75 -38 51 -80 -85 -77 -98 0 vhcurveto
        return
      </CharString>
      <CharString index="23">
        66 hmoveto
        75 hlineto
        83 359 rlineto
        0 111 59 64 16 vhcurveto
        20 77 rlineto
        -88 -18 -93 -67 0 vvcurveto
        18 74 -48 callgsubr
        return
      </CharString>
      <CharString index="24">
        255 0 72 105 70 70 69 238 72 hstem
        348 89 vstem
        348 hmoveto
        389 hlineto
        15 72 rlineto
        -315 hlineto
        58 245 rlineto
        261 hlineto
        15 69 rlineto
        -260 hlineto
        57 240 317 -2 15 72 rlineto
        -530 hlineto
        -345 -696 -18 callsubr
        90 177 rlineto
        201 hlineto
        19 447 rmoveto
        88 hlineto
        -90 -377 rlineto
        -185 hlineto
        return
      </CharString>
      <CharString index="25">
        rmoveto
        -104 -38 39 105 128 50 186 99 81 hvcurveto
        return
      </CharString>
      <CharString index="26">
        140 hmoveto
        77 332 rlineto
        0 87 112 67 48 20 -28 -47 -34 -11 -54 -8 -32 vhcurveto
        -58 -249 rlineto
        74 hlineto
        59 254 rlineto
        9 36 11 53 41 vvcurveto
        return
      </CharString>
      <CharString index="27">
        -18 -87 -18 callsubr
        115 -17 callgsubr
        return
      </CharString>
      <CharString index="28">
        -75 39 -51 79 85 76 97 0 vhcurveto
        return
      </CharString>
      <CharString index="29">
        rmoveto
        158 151 -40 callsubr
        -90 -89 -51 89 3 callgsubr
        85 -151 rlineto
        return
      </CharString>
      <CharString index="30">
        -47 21 -84 -123 rlineto
        19 -34 -44 9 -52 hhcurveto
        -72 -62 -26 -46 -50 hvcurveto
        -105 -95 -54 -174 -164 vvcurveto
        -70 14 -50 31 -33 vhcurveto
        -90 -133 rlineto
        138 205 rmoveto
        -10 21 -4 29 36 vvcurveto
        -3 callgsubr
        40 31 -7 -16 22 hvcurveto
        return
      </CharString>
      <CharString index="31">
        -246 -110 -271 -245 -133 74 -63 135 105 88 27 0 return
      </CharString>
      <CharString index="32">
        77 hlineto
        -76 269 rlineto
        80 22 98 76 158 vvcurveto
        122 -62 45 -118 vhcurveto
        -211 -3 callsubr
        61 259 rlineto
        164 hlineto
        170 264 rmoveto
        -114 -67 -83 -105 vhcurveto
        -147 hlineto
        69 299 rlineto
        142 hlineto
        76 32 -27 -75 hvcurveto
        endchar
      </CharString>
      <CharString index="33">
        rmoveto
        70 hlineto
        -96 -210 rlineto
        -61 hlineto
        return
      </CharString>
      <CharString index="34">
        19 58 rlineto
        0 -98 31 -101 -76 callgsubr
        vhcurveto
        80 342 rlineto
        -182 hlineto
        return
      </CharString>
      <CharString index="35">
        vvcurveto
        -40 24 -23 46 32 45 9 0 vhcurveto
        7 63 rlineto
        0 -34 -5 -14 -16 -8 7 13 return
      </CharString>
      <CharString index="36">
        74 hlineto
        116 500 -40 callsubr
        return
      </CharString>
      <CharString index="37">
        99 21 -21 316 67 hstem
        78 76 84 76 155 77 83 77 vstem
        469 hmoveto
        77 hlineto
        -69 callgsubr
        -77 hlineto
        -71 -309 rlineto
        -315 hlineto
        71 309 rlineto
        -76 -3 callsubr
        73 316 rlineto
        315 hlineto
        return
      </CharString>
      <CharString index="38">
        160 692 rlineto
        return
      </CharString>
      <CharString index="39">
        rmoveto
        70 17 -38 30 -59 hhcurveto
        -62 -49 -32 -68 -18 hvcurveto
        -63 -17 35 -37 62 hhcurveto
        67 46 38 62 16 hvcurveto
        -159 hmoveto
        -45 callsubr
        -30 -7 -24 -18 -35 hhcurveto
        -35 -13 21 27 6 hvcurveto
        return
      </CharString>
      <CharString index="40">
        -97 -24 32 -45 67 hhcurveto
        67 54 45 96 24 hvcurveto
        97 24 -33 42 -67 hhcurveto
        -68 -52 -42 -96 -24 hvcurveto
        60 hmoveto
        58 15 20 28 36 hhcurveto
        37 6 -28 -59 -15 hvcurveto
        -59 -15 -20 -31 -37 hhcurveto
        -37 -5 31 60 15 hvcurveto
        endchar
      </CharString>
      <CharString index="41">
        76 hlineto
        -49 callgsubr
        endchar
      </CharString>
      <CharString index="42">
        -63 -10 66 172 59 160 63 return
      </CharString>
      <CharString index="43">
        rmoveto
        274 hlineto
        15 59 rlineto
        -275 hlineto
        endchar
      </CharString>
      <CharString index="44">
        -10 65 390 65 return
      </CharString>
      <CharString index="45">
        0 13 95 15 63 vhcurveto
        return
      </CharString>
      <CharString index="46">
        0 76 97 85 80 38 -51 -75 -41 -11 -53 -9 -36 vhcurveto
        -20 callsubr
        -74 hlineto
        58 249 rlineto
        8 32 11 54 34 vvcurveto
        47 -20 28 -48 -67 -87 -112 0 vhcurveto
        -35 callsubr
        return
      </CharString>
      <CharString index="47">
        814 rmoveto
        60 -21 callgsubr
        166 -93 rmoveto
        61 hlineto
        return
      </CharString>
      <CharString index="48">
        rmoveto
        427 691 -70 26 -427 -692 rlineto
        return
      </CharString>
      <CharString index="49">
        rmoveto
        0 -55 -41 -20 vhcurveto
        return
      </CharString>
      <CharString index="50">
        108 120 153 150 -108 123 -156 -152 -111 -119 -154 vhcurveto
        44 hmoveto
        126 93 104 126 126 94 -104 -126 -127 -93 -102 return
      </CharString>
      <CharString index="51">
        54 237 67 2 84 -239 rlineto
        79 hlineto
        -95 268 212 232 rlineto
        -87 hlineto
        -181 -197 -64 -3 97 418 23 callgsubr
      </CharString>
      <CharString index="52">
        -21 177 67 380 68 -47 -21 68 -20 hstemhm
        24 78 return
      </CharString>
      <CharString index="53">
        -111 -223 -41 callgsubr
        91 223 rlineto
        return
      </CharString>
      <CharString index="54">
        22 93 3 callgsubr
        return
      </CharString>
      <CharString index="55">
        rmoveto
        hintmask 11000000
        0 226 310 325 vvcurveto
        150 -21 87 0 vhcurveto
        hintmask 10100000
        -71 hlineto
        0 15 -96 -141 vvcurveto
        -302 -220 -333 3 callsubr
      </CharString>
      <CharString index="56">
        178 -14 callsubr
        -119 -800 -59 callgsubr
        return
      </CharString>
      <CharString index="57">
        58 249 -48 callgsubr
        -20 callsubr
        -9 -36 -11 -53 -41 vvcurveto
        -79 callgsubr
        -80 callgsubr
        endchar
      </CharString>
      <CharString index="58">
        -69 callgsubr
        -76 hlineto
        return
      </CharString>
      <CharString index="59">
        rlineto
        -74 hlineto
        return
      </CharString>
      <CharString index="60">
        -30 callgsubr
        -177 -41 callgsubr
        return
      </CharString>
      <CharString index="61">
        -31 11 -21 455 65 return
      </CharString>
      <CharString index="62">
        rmoveto
        252 hlineto
        -340 -371 -12 -64 rlineto
        342 hlineto
        15 65 rlineto
        -255 hlineto
        341 371 14 64 rlineto
        -341 hlineto
        endchar
      </CharString>
      <CharString index="63">
        0 -83 -17 -80 -86 -37 45 89 return
      </CharString>
      <CharString index="64">
        -319 21 -21 500 -20 return
      </CharString>
      <CharString index="65">
        34 11 54 8 32 return
      </CharString>
      <CharString index="66">
        rlineto
        76 hlineto
        return
      </CharString>
      <CharString index="67">
        rmoveto
        64 hlineto
        21 89 19 callsubr
      </CharString>
      <CharString index="68">
        -45 -99 61 -56 hhcurveto
        -55 -62 -53 0 hvcurveto
        10 -62 rlineto
        0 64 47 42 vhcurveto
        hintmask 10100000
        42 103 -62 56 hhcurveto
        54 59 54 0 hvcurveto
        return
      </CharString>
      <CharString index="69">
        111 223 -4 callgsubr
        -91 -223 rlineto
        return
      </CharString>
      <CharString index="70">
        -10 68 576 68 return
      </CharString>
      <CharString index="71">
        rmoveto
        -203 -869 rlineto
        193 hlineto
        17 65 rlineto
        -119 hlineto
        173 739 rlineto
        119 hlineto
        15 65 rlineto
        endchar
      </CharString>
      <CharString index="72">
        -147 -29 rmoveto
        169 129 -46 32 -166 -132 rlineto
        return
      </CharString>
      <CharString index="73">
        66 hmoveto
        -24 -102 -10 -12 -119 -61 24 -60 rcurveline
        155 71 14 16 34 148 116 500 rcurveline
        -75 hlineto
        return
      </CharString>
      <CharString index="74">
        rlineto
        -77 hlineto
        return
      </CharString>
      <CharString index="75">
        -57 -235 64 341 62 215 63 return
      </CharString>
      <CharString index="76">
        -71 -200 -21 285 -20 456 -20 return
      </CharString>
      <CharString index="77">
        -71 callsubr
        6 return
      </CharString>
      <CharString index="78">
        -27 21 -21 444 56 -56 66 return
      </CharString>
      <CharString index="79">
        89 86 -4 callsubr
        return
      </CharString>
      <CharString index="80">
        hlineto
        -71 -309 -11 callsubr
        55 241 rlineto
        return
      </CharString>
      <CharString index="81">
        rmoveto
        -67 hlineto
        -116 -470 rlineto
        77 hlineto
        159 700 rmoveto
        -76 hlineto
        -25 -111 -41 callgsubr
        endchar
      </CharString>
      <CharString index="82">
        162 -93 rmoveto
        60 0 callsubr
        endchar
      </CharString>
      <CharString index="83">
        75 hlineto
        165 718 -48 callgsubr
        return
      </CharString>
      <CharString index="84">
        -20 20 68 250 68 238 68 return
      </CharString>
      <CharString index="85">
        rmoveto
        171 129 -49 32 -164 -131 rlineto
        return
      </CharString>
      <CharString index="86">
        hlineto
        23 -46 callsubr
        return
      </CharString>
      <CharString index="87">
        86 -58 36 -90 return
      </CharString>
      <CharString index="88">
        -10 callsubr
        -71 -306 rlineto
        return
      </CharString>
      <CharString index="89">
        74 320 rlineto
        -76 -3 callsubr
        70 304 100 3 rlineto
        endchar
      </CharString>
      <CharString index="90">
        500 rlineto
        return
      </CharString>
      <CharString index="91">
        111 -4 callgsubr
        return
      </CharString>
      <CharString index="92">
        55 238 rlineto
        return
      </CharString>
      <CharString index="93">
        81 hlineto
        -110 343 269 349 rlineto
        -86 hlineto
        -245 -317 -91 -3 return
      </CharString>
      <CharString index="94">
        -82 callgsubr
        -63 callsubr
        return
      </CharString>
      <CharString index="95">
        74 vstem
        199 469 rmoveto
        -38 callgsubr
        return
      </CharString>
      <CharString index="96">
        24 hmoveto
        -6 callgsubr
        return
      </CharString>
      <CharString index="97">
        77 rlineto
        -158 hlineto
        44 188 rlineto
        -70 hlineto
        -45 -190 -158 2 return
      </CharString>
      <CharString index="98">
        206 0 65 435 -20 return
      </CharString>
      <CharString index="99">
        57 103 55 117 -20 hstem
        return
      </CharString>
      <CharString index="100">
        151 rlineto
        return
      </CharString>
      <CharString index="101">
        -57 callsubr
        -14 return
      </CharString>
      <CharString index="102">
        rlineto
        69 hlineto
        return
      </CharString>
      <CharString index="103">
        rlineto
        -76 hlineto
        return
      </CharString>
      <CharString index="104">
        128 50 186 99 81 vhcurveto
        -63 callsubr
        return
      </CharString>
      <CharString index="105">
        106 0 0 79 -20 633 -20 return
      </CharString>
      <CharString index="106">
        hstemhm
        98 76 185 73 return
      </CharString>
      <CharString index="107">
        15 68 rlineto
        -272 hlineto
        return
      </CharString>
      <CharString index="108">
        -204 67 149 -20 return
      </CharString>
      <CharString index="109">
        59 59 53 103 58 hstem
        return
      </CharString>
      <CharString index="110">
        rlineto
        -69 hlineto
        return
      </CharString>
      <CharString index="111">
        -35 callsubr
        -75 callsubr
        return
      </CharString>
      <CharString index="112">
        80 77 -66 -21 270 69 16 -20 hstemhm
        216 60 return
      </CharString>
      <CharString index="113">
        rmoveto
        -54 callgsubr
        return
      </CharString>
      <CharString index="114">
        -21 229 -20 103 -20 hstemhm
        108 70 98 81 return
      </CharString>
      <CharString index="115">
        rmoveto
        14 callgsubr
      </CharString>
      <CharString index="116">
        478 75 rmoveto
        return
      </CharString>
      <CharString index="117">
        rmoveto
        76 hlineto
        return
      </CharString>
      <CharString index="118">
        166 -93 rmoveto
        61 -21 callgsubr
        return
      </CharString>
      <CharString index="119">
        741 -66 callsubr
        return
      </CharString>
      <CharString index="120">
        hlineto
        28 120 rlineto
        -73 hlineto
        -28 -120 rlineto
        return
      </CharString>
      <CharString index="121">
        -71 callgsubr
        endchar
      </CharString>
      <CharString index="122">
        68 744 68 hstemhm
        return
      </CharString>
      <CharString index="123">
        65 739 65 hstem
        return
      </CharString>
      <CharString index="124">
        55 222 55 hstem
        return
      </CharString>
      <CharString index="125">
        59 214 59 hstem
        return
      </CharString>
      <CharString index="126">
        -21 259 62 hstem
        return
      </CharString>
      <CharString index="127">
        rlineto
        -19 hlineto
        return
      </CharString>
      <CharString index="128">
        235 66 hstem
        109 301 rmoveto
        -66 return
      </CharString>
      <CharString index="129">
        620 rmoveto
        68 -29 callsubr
        return
      </CharString>
      <CharString index="130">
        -17 callsubr
        endchar
      </CharString>
</ttFont>
